<svg xmlns="http://www.w3.org/2000/svg" xmlns:xlink="http://www.w3.org/1999/xlink" width="1920" zoomAndPan="magnify" viewBox="0 0 1440 809.999993" height="1080" preserveAspectRatio="xMidYMid meet" version="1.0"><defs><g/><clipPath id="id1"><path d="M 798.9375 371 L 810 371 L 810 440 L 798.9375 440 Z M 798.9375 371 " clip-rule="nonzero"/></clipPath><clipPath id="id2"><path d="M 809.089844 372.699219 C 809.089844 370.925781 806.675781 370.425781 805.964844 372.0625 C 801.421875 382.148438 798.9375 393.375 798.9375 405.167969 C 798.9375 416.960938 801.421875 428.183594 805.964844 438.273438 C 806.675781 439.90625 809.089844 439.339844 809.089844 437.632812 Z M 809.089844 372.699219 " clip-rule="nonzero"/></clipPath><linearGradient x1="-0.0000328015" gradientTransform="matrix(0.71, 0, 0, 0.710429, 798.937189, 323.964917)" y1="114.286003" x2="14.299967" gradientUnits="userSpaceOnUse" y2="114.286003" id="id3"><stop stop-opacity="1" stop-color="rgb(34.899902%, 56.498718%, 100%)" offset="0"/><stop stop-opacity="1" stop-color="rgb(35.00061%, 56.565857%, 100%)" offset="0.015625"/><stop stop-opacity="1" stop-color="rgb(35.202026%, 56.70166%, 100%)" offset="0.03125"/><stop stop-opacity="1" stop-color="rgb(35.403442%, 56.835938%, 100%)" offset="0.046875"/><stop stop-opacity="1" stop-color="rgb(35.606384%, 56.970215%, 100%)" offset="0.0625"/><stop stop-opacity="1" stop-color="rgb(35.8078%, 57.104492%, 100%)" offset="0.078125"/><stop stop-opacity="1" stop-color="rgb(36.009216%, 57.240295%, 100%)" offset="0.09375"/><stop stop-opacity="1" stop-color="rgb(36.212158%, 57.374573%, 100%)" offset="0.109375"/><stop stop-opacity="1" stop-color="rgb(36.413574%, 57.50885%, 100%)" offset="0.125"/><stop stop-opacity="1" stop-color="rgb(36.61499%, 57.643127%, 100%)" offset="0.140625"/><stop stop-opacity="1" stop-color="rgb(36.817932%, 57.777405%, 100%)" offset="0.15625"/><stop stop-opacity="1" stop-color="rgb(37.019348%, 57.913208%, 100%)" offset="0.171875"/><stop stop-opacity="1" stop-color="rgb(37.220764%, 58.047485%, 100%)" offset="0.1875"/><stop stop-opacity="1" stop-color="rgb(37.423706%, 58.181763%, 100%)" offset="0.203125"/><stop stop-opacity="1" stop-color="rgb(37.625122%, 58.31604%, 100%)" offset="0.21875"/><stop stop-opacity="1" stop-color="rgb(37.828064%, 58.451843%, 100%)" offset="0.234375"/><stop stop-opacity="1" stop-color="rgb(38.02948%, 58.586121%, 100%)" offset="0.25"/><stop stop-opacity="1" stop-color="rgb(38.230896%, 58.720398%, 100%)" offset="0.265625"/><stop stop-opacity="1" stop-color="rgb(38.433838%, 58.854675%, 100%)" offset="0.28125"/><stop stop-opacity="1" stop-color="rgb(38.635254%, 58.990479%, 100%)" offset="0.296875"/><stop stop-opacity="1" stop-color="rgb(38.83667%, 59.124756%, 100%)" offset="0.3125"/><stop stop-opacity="1" stop-color="rgb(39.039612%, 59.259033%, 100%)" offset="0.328125"/><stop stop-opacity="1" stop-color="rgb(39.241028%, 59.393311%, 100%)" offset="0.34375"/><stop stop-opacity="1" stop-color="rgb(39.442444%, 59.529114%, 100%)" offset="0.359375"/><stop stop-opacity="1" stop-color="rgb(39.645386%, 59.663391%, 100%)" offset="0.375"/><stop stop-opacity="1" stop-color="rgb(39.846802%, 59.797668%, 100%)" offset="0.390625"/><stop stop-opacity="1" stop-color="rgb(40.048218%, 59.931946%, 100%)" offset="0.40625"/><stop stop-opacity="1" stop-color="rgb(40.25116%, 60.067749%, 100%)" offset="0.421875"/><stop stop-opacity="1" stop-color="rgb(40.452576%, 60.202026%, 100%)" offset="0.4375"/><stop stop-opacity="1" stop-color="rgb(40.655518%, 60.336304%, 100%)" offset="0.453125"/><stop stop-opacity="1" stop-color="rgb(40.856934%, 60.470581%, 100%)" offset="0.46875"/><stop stop-opacity="1" stop-color="rgb(41.05835%, 60.604858%, 100%)" offset="0.484375"/><stop stop-opacity="1" stop-color="rgb(41.261292%, 60.740662%, 100%)" offset="0.5"/><stop stop-opacity="1" stop-color="rgb(41.462708%, 60.874939%, 100%)" offset="0.515625"/><stop stop-opacity="1" stop-color="rgb(41.664124%, 61.009216%, 100%)" offset="0.53125"/><stop stop-opacity="1" stop-color="rgb(41.867065%, 61.143494%, 100%)" offset="0.546875"/><stop stop-opacity="1" stop-color="rgb(42.068481%, 61.279297%, 100%)" offset="0.5625"/><stop stop-opacity="1" stop-color="rgb(42.269897%, 61.413574%, 100%)" offset="0.578125"/><stop stop-opacity="1" stop-color="rgb(42.472839%, 61.547852%, 100%)" offset="0.59375"/><stop stop-opacity="1" stop-color="rgb(42.674255%, 61.682129%, 100%)" offset="0.609375"/><stop stop-opacity="1" stop-color="rgb(42.875671%, 61.817932%, 100%)" offset="0.625"/><stop stop-opacity="1" stop-color="rgb(43.078613%, 61.952209%, 100%)" offset="0.640625"/><stop stop-opacity="1" stop-color="rgb(43.280029%, 62.086487%, 100%)" offset="0.65625"/><stop stop-opacity="1" stop-color="rgb(43.482971%, 62.220764%, 100%)" offset="0.671875"/><stop stop-opacity="1" stop-color="rgb(43.684387%, 62.356567%, 100%)" offset="0.6875"/><stop stop-opacity="1" stop-color="rgb(43.885803%, 62.490845%, 100%)" offset="0.703125"/><stop stop-opacity="1" stop-color="rgb(44.088745%, 62.625122%, 100%)" offset="0.71875"/><stop stop-opacity="1" stop-color="rgb(44.290161%, 62.759399%, 100%)" offset="0.734375"/><stop stop-opacity="1" stop-color="rgb(44.491577%, 62.895203%, 100%)" offset="0.75"/><stop stop-opacity="1" stop-color="rgb(44.694519%, 63.02948%, 100%)" offset="0.765625"/><stop stop-opacity="1" stop-color="rgb(44.895935%, 63.163757%, 100%)" offset="0.78125"/><stop stop-opacity="1" stop-color="rgb(45.097351%, 63.298035%, 100%)" offset="0.796875"/><stop stop-opacity="1" stop-color="rgb(45.300293%, 63.432312%, 100%)" offset="0.8125"/><stop stop-opacity="1" stop-color="rgb(45.501709%, 63.568115%, 100%)" offset="0.828125"/><stop stop-opacity="1" stop-color="rgb(45.704651%, 63.702393%, 100%)" offset="0.84375"/><stop stop-opacity="1" stop-color="rgb(45.906067%, 63.83667%, 100%)" offset="0.859375"/><stop stop-opacity="1" stop-color="rgb(46.107483%, 63.970947%, 100%)" offset="0.875"/><stop stop-opacity="1" stop-color="rgb(46.310425%, 64.10675%, 100%)" offset="0.890625"/><stop stop-opacity="1" stop-color="rgb(46.511841%, 64.241028%, 100%)" offset="0.90625"/><stop stop-opacity="1" stop-color="rgb(46.713257%, 64.375305%, 100%)" offset="0.921875"/><stop stop-opacity="1" stop-color="rgb(46.916199%, 64.509583%, 100%)" offset="0.9375"/><stop stop-opacity="1" stop-color="rgb(47.117615%, 64.645386%, 100%)" offset="0.953125"/><stop stop-opacity="1" stop-color="rgb(47.319031%, 64.779663%, 100%)" offset="0.96875"/><stop stop-opacity="1" stop-color="rgb(47.610474%, 64.971924%, 100%)" offset="1"/></linearGradient><clipPath id="id4"><path d="M 814 354 L 835 354 L 835 457 L 814 457 Z M 814 354 " clip-rule="nonzero"/></clipPath><clipPath id="id5"><path d="M 834.4375 355.933594 C 834.4375 354.371094 832.519531 353.730469 831.527344 354.941406 C 820.664062 368.722656 814.132812 386.199219 814.132812 405.167969 C 814.132812 424.136719 820.59375 441.539062 831.527344 455.394531 C 832.449219 456.601562 834.4375 455.960938 834.4375 454.398438 Z M 834.4375 355.933594 " clip-rule="nonzero"/></clipPath><linearGradient x1="21.399968" gradientTransform="matrix(0.71, 0, 0, 0.710429, 798.937189, 323.964917)" y1="114.286003" x2="49.999965" gradientUnits="userSpaceOnUse" y2="114.286003" id="id6"><stop stop-opacity="1" stop-color="rgb(47.799683%, 65.098572%, 100%)" offset="0"/><stop stop-opacity="1" stop-color="rgb(47.897339%, 65.164185%, 100%)" offset="0.015625"/><stop stop-opacity="1" stop-color="rgb(48.100281%, 65.301514%, 100%)" offset="0.03125"/><stop stop-opacity="1" stop-color="rgb(48.309326%, 65.441895%, 100%)" offset="0.046875"/><stop stop-opacity="1" stop-color="rgb(48.519897%, 65.582275%, 100%)" offset="0.0625"/><stop stop-opacity="1" stop-color="rgb(48.728943%, 65.724182%, 100%)" offset="0.078125"/><stop stop-opacity="1" stop-color="rgb(48.939514%, 65.864563%, 100%)" offset="0.09375"/><stop stop-opacity="1" stop-color="rgb(49.14856%, 66.00647%, 100%)" offset="0.109375"/><stop stop-opacity="1" stop-color="rgb(49.359131%, 66.146851%, 100%)" offset="0.125"/><stop stop-opacity="1" stop-color="rgb(49.568176%, 66.287231%, 100%)" offset="0.140625"/><stop stop-opacity="1" stop-color="rgb(49.778748%, 66.429138%, 100%)" offset="0.15625"/><stop stop-opacity="1" stop-color="rgb(49.987793%, 66.569519%, 100%)" offset="0.171875"/><stop stop-opacity="1" stop-color="rgb(50.198364%, 66.7099%, 100%)" offset="0.1875"/><stop stop-opacity="1" stop-color="rgb(50.40741%, 66.851807%, 100%)" offset="0.203125"/><stop stop-opacity="1" stop-color="rgb(50.617981%, 66.992188%, 100%)" offset="0.21875"/><stop stop-opacity="1" stop-color="rgb(50.827026%, 67.132568%, 100%)" offset="0.234375"/><stop stop-opacity="1" stop-color="rgb(51.037598%, 67.274475%, 100%)" offset="0.25"/><stop stop-opacity="1" stop-color="rgb(51.246643%, 67.414856%, 100%)" offset="0.265625"/><stop stop-opacity="1" stop-color="rgb(51.457214%, 67.555237%, 100%)" offset="0.28125"/><stop stop-opacity="1" stop-color="rgb(51.66626%, 67.697144%, 100%)" offset="0.296875"/><stop stop-opacity="1" stop-color="rgb(51.876831%, 67.837524%, 100%)" offset="0.3125"/><stop stop-opacity="1" stop-color="rgb(52.085876%, 67.977905%, 100%)" offset="0.328125"/><stop stop-opacity="1" stop-color="rgb(52.296448%, 68.119812%, 100%)" offset="0.34375"/><stop stop-opacity="1" stop-color="rgb(52.505493%, 68.260193%, 100%)" offset="0.359375"/><stop stop-opacity="1" stop-color="rgb(52.716064%, 68.400574%, 100%)" offset="0.375"/><stop stop-opacity="1" stop-color="rgb(52.92511%, 68.54248%, 100%)" offset="0.390625"/><stop stop-opacity="1" stop-color="rgb(53.135681%, 68.682861%, 100%)" offset="0.40625"/><stop stop-opacity="1" stop-color="rgb(53.344727%, 68.823242%, 100%)" offset="0.421875"/><stop stop-opacity="1" stop-color="rgb(53.555298%, 68.965149%, 100%)" offset="0.4375"/><stop stop-opacity="1" stop-color="rgb(53.764343%, 69.10553%, 100%)" offset="0.453125"/><stop stop-opacity="1" stop-color="rgb(53.974915%, 69.245911%, 100%)" offset="0.46875"/><stop stop-opacity="1" stop-color="rgb(54.18396%, 69.387817%, 100%)" offset="0.484375"/><stop stop-opacity="1" stop-color="rgb(54.394531%, 69.528198%, 100%)" offset="0.5"/><stop stop-opacity="1" stop-color="rgb(54.603577%, 69.670105%, 100%)" offset="0.515625"/><stop stop-opacity="1" stop-color="rgb(54.814148%, 69.810486%, 100%)" offset="0.53125"/><stop stop-opacity="1" stop-color="rgb(55.023193%, 69.950867%, 100%)" offset="0.546875"/><stop stop-opacity="1" stop-color="rgb(55.233765%, 70.092773%, 100%)" offset="0.5625"/><stop stop-opacity="1" stop-color="rgb(55.44281%, 70.233154%, 100%)" offset="0.578125"/><stop stop-opacity="1" stop-color="rgb(55.653381%, 70.373535%, 100%)" offset="0.59375"/><stop stop-opacity="1" stop-color="rgb(55.862427%, 70.515442%, 100%)" offset="0.609375"/><stop stop-opacity="1" stop-color="rgb(56.071472%, 70.655823%, 100%)" offset="0.625"/><stop stop-opacity="1" stop-color="rgb(56.282043%, 70.796204%, 100%)" offset="0.640625"/><stop stop-opacity="1" stop-color="rgb(56.491089%, 70.93811%, 100%)" offset="0.65625"/><stop stop-opacity="1" stop-color="rgb(56.70166%, 71.078491%, 100%)" offset="0.671875"/><stop stop-opacity="1" stop-color="rgb(56.910706%, 71.218872%, 100%)" offset="0.6875"/><stop stop-opacity="1" stop-color="rgb(57.121277%, 71.360779%, 100%)" offset="0.703125"/><stop stop-opacity="1" stop-color="rgb(57.330322%, 71.50116%, 100%)" offset="0.71875"/><stop stop-opacity="1" stop-color="rgb(57.540894%, 71.641541%, 100%)" offset="0.734375"/><stop stop-opacity="1" stop-color="rgb(57.749939%, 71.783447%, 100%)" offset="0.75"/><stop stop-opacity="1" stop-color="rgb(57.96051%, 71.923828%, 100%)" offset="0.765625"/><stop stop-opacity="1" stop-color="rgb(58.169556%, 72.064209%, 100%)" offset="0.78125"/><stop stop-opacity="1" stop-color="rgb(58.380127%, 72.206116%, 100%)" offset="0.796875"/><stop stop-opacity="1" stop-color="rgb(58.589172%, 72.346497%, 100%)" offset="0.8125"/><stop stop-opacity="1" stop-color="rgb(58.799744%, 72.486877%, 100%)" offset="0.828125"/><stop stop-opacity="1" stop-color="rgb(59.008789%, 72.628784%, 100%)" offset="0.84375"/><stop stop-opacity="1" stop-color="rgb(59.21936%, 72.769165%, 100%)" offset="0.859375"/><stop stop-opacity="1" stop-color="rgb(59.428406%, 72.909546%, 100%)" offset="0.875"/><stop stop-opacity="1" stop-color="rgb(59.638977%, 73.051453%, 100%)" offset="0.890625"/><stop stop-opacity="1" stop-color="rgb(59.848022%, 73.191833%, 100%)" offset="0.90625"/><stop stop-opacity="1" stop-color="rgb(60.058594%, 73.332214%, 100%)" offset="0.921875"/><stop stop-opacity="1" stop-color="rgb(60.267639%, 73.474121%, 100%)" offset="0.9375"/><stop stop-opacity="1" stop-color="rgb(60.47821%, 73.614502%, 100%)" offset="0.953125"/><stop stop-opacity="1" stop-color="rgb(60.687256%, 73.756409%, 100%)" offset="0.96875"/><stop stop-opacity="1" stop-color="rgb(60.897827%, 73.89679%, 100%)" offset="0.984375"/><stop stop-opacity="1" stop-color="rgb(61.100769%, 74.032593%, 100%)" offset="1"/></linearGradient><clipPath id="id7"><path d="M 829 336 L 870 336 L 870 475 L 829 475 Z M 829 336 " clip-rule="nonzero"/></clipPath><clipPath id="id8"><path d="M 869.9375 472.585938 L 869.9375 337.675781 C 869.9375 336.398438 868.515625 335.617188 867.453125 336.328125 C 844.589844 350.675781 829.394531 376.109375 829.394531 405.167969 C 829.394531 434.222656 844.589844 459.65625 867.453125 474.007812 C 868.515625 474.648438 869.9375 473.867188 869.9375 472.585938 Z M 869.9375 472.585938 " clip-rule="nonzero"/></clipPath><linearGradient x1="42.899967" gradientTransform="matrix(0.71, 0, 0, 0.710429, 798.937189, 323.964917)" y1="114.286003" x2="99.999963" gradientUnits="userSpaceOnUse" y2="114.286003" id="id9"><stop stop-opacity="1" stop-color="rgb(61.209106%, 74.105835%, 100%)" offset="0"/><stop stop-opacity="1" stop-color="rgb(61.309814%, 74.172974%, 100%)" offset="0.015625"/><stop stop-opacity="1" stop-color="rgb(61.51123%, 74.307251%, 100%)" offset="0.03125"/><stop stop-opacity="1" stop-color="rgb(61.712646%, 74.441528%, 100%)" offset="0.046875"/><stop stop-opacity="1" stop-color="rgb(61.914062%, 74.575806%, 100%)" offset="0.0625"/><stop stop-opacity="1" stop-color="rgb(62.115479%, 74.710083%, 100%)" offset="0.078125"/><stop stop-opacity="1" stop-color="rgb(62.316895%, 74.84436%, 100%)" offset="0.09375"/><stop stop-opacity="1" stop-color="rgb(62.518311%, 74.978638%, 100%)" offset="0.109375"/><stop stop-opacity="1" stop-color="rgb(62.719727%, 75.112915%, 100%)" offset="0.125"/><stop stop-opacity="1" stop-color="rgb(62.921143%, 75.247192%, 100%)" offset="0.140625"/><stop stop-opacity="1" stop-color="rgb(63.122559%, 75.38147%, 100%)" offset="0.15625"/><stop stop-opacity="1" stop-color="rgb(63.323975%, 75.515747%, 100%)" offset="0.171875"/><stop stop-opacity="1" stop-color="rgb(63.525391%, 75.650024%, 100%)" offset="0.1875"/><stop stop-opacity="1" stop-color="rgb(63.726807%, 75.784302%, 100%)" offset="0.203125"/><stop stop-opacity="1" stop-color="rgb(63.928223%, 75.918579%, 100%)" offset="0.21875"/><stop stop-opacity="1" stop-color="rgb(64.129639%, 76.052856%, 100%)" offset="0.234375"/><stop stop-opacity="1" stop-color="rgb(64.331055%, 76.187134%, 100%)" offset="0.25"/><stop stop-opacity="1" stop-color="rgb(64.532471%, 76.321411%, 100%)" offset="0.265625"/><stop stop-opacity="1" stop-color="rgb(64.733887%, 76.455688%, 100%)" offset="0.28125"/><stop stop-opacity="1" stop-color="rgb(64.935303%, 76.589966%, 100%)" offset="0.296875"/><stop stop-opacity="1" stop-color="rgb(65.136719%, 76.724243%, 100%)" offset="0.3125"/><stop stop-opacity="1" stop-color="rgb(65.338135%, 76.858521%, 100%)" offset="0.328125"/><stop stop-opacity="1" stop-color="rgb(65.539551%, 76.992798%, 100%)" offset="0.34375"/><stop stop-opacity="1" stop-color="rgb(65.740967%, 77.127075%, 100%)" offset="0.359375"/><stop stop-opacity="1" stop-color="rgb(65.942383%, 77.261353%, 100%)" offset="0.375"/><stop stop-opacity="1" stop-color="rgb(66.143799%, 77.39563%, 100%)" offset="0.390625"/><stop stop-opacity="1" stop-color="rgb(66.345215%, 77.529907%, 100%)" offset="0.40625"/><stop stop-opacity="1" stop-color="rgb(66.546631%, 77.664185%, 100%)" offset="0.421875"/><stop stop-opacity="1" stop-color="rgb(66.748047%, 77.798462%, 100%)" offset="0.4375"/><stop stop-opacity="1" stop-color="rgb(66.949463%, 77.932739%, 100%)" offset="0.453125"/><stop stop-opacity="1" stop-color="rgb(67.150879%, 78.067017%, 100%)" offset="0.46875"/><stop stop-opacity="1" stop-color="rgb(67.352295%, 78.201294%, 100%)" offset="0.484375"/><stop stop-opacity="1" stop-color="rgb(67.553711%, 78.335571%, 100%)" offset="0.5"/><stop stop-opacity="1" stop-color="rgb(67.755127%, 78.469849%, 100%)" offset="0.515625"/><stop stop-opacity="1" stop-color="rgb(67.956543%, 78.604126%, 100%)" offset="0.53125"/><stop stop-opacity="1" stop-color="rgb(68.157959%, 78.738403%, 100%)" offset="0.546875"/><stop stop-opacity="1" stop-color="rgb(68.359375%, 78.872681%, 100%)" offset="0.5625"/><stop stop-opacity="1" stop-color="rgb(68.560791%, 79.006958%, 100%)" offset="0.578125"/><stop stop-opacity="1" stop-color="rgb(68.762207%, 79.141235%, 100%)" offset="0.59375"/><stop stop-opacity="1" stop-color="rgb(68.963623%, 79.275513%, 100%)" offset="0.609375"/><stop stop-opacity="1" stop-color="rgb(69.165039%, 79.40979%, 100%)" offset="0.625"/><stop stop-opacity="1" stop-color="rgb(69.366455%, 79.544067%, 100%)" offset="0.640625"/><stop stop-opacity="1" stop-color="rgb(69.567871%, 79.678345%, 100%)" offset="0.65625"/><stop stop-opacity="1" stop-color="rgb(69.769287%, 79.812622%, 100%)" offset="0.671875"/><stop stop-opacity="1" stop-color="rgb(69.970703%, 79.946899%, 100%)" offset="0.6875"/><stop stop-opacity="1" stop-color="rgb(70.172119%, 80.081177%, 100%)" offset="0.703125"/><stop stop-opacity="1" stop-color="rgb(70.373535%, 80.215454%, 100%)" offset="0.71875"/><stop stop-opacity="1" stop-color="rgb(70.574951%, 80.349731%, 100%)" offset="0.734375"/><stop stop-opacity="1" stop-color="rgb(70.776367%, 80.484009%, 100%)" offset="0.75"/><stop stop-opacity="1" stop-color="rgb(70.977783%, 80.618286%, 100%)" offset="0.765625"/><stop stop-opacity="1" stop-color="rgb(71.179199%, 80.752563%, 100%)" offset="0.78125"/><stop stop-opacity="1" stop-color="rgb(71.380615%, 80.886841%, 100%)" offset="0.796875"/><stop stop-opacity="1" stop-color="rgb(71.582031%, 81.021118%, 100%)" offset="0.8125"/><stop stop-opacity="1" stop-color="rgb(71.783447%, 81.155396%, 100%)" offset="0.828125"/><stop stop-opacity="1" stop-color="rgb(71.984863%, 81.289673%, 100%)" offset="0.84375"/><stop stop-opacity="1" stop-color="rgb(72.186279%, 81.42395%, 100%)" offset="0.859375"/><stop stop-opacity="1" stop-color="rgb(72.387695%, 81.558228%, 100%)" offset="0.875"/><stop stop-opacity="1" stop-color="rgb(72.589111%, 81.692505%, 100%)" offset="0.890625"/><stop stop-opacity="1" stop-color="rgb(72.790527%, 81.826782%, 100%)" offset="0.90625"/><stop stop-opacity="1" stop-color="rgb(72.991943%, 81.96106%, 100%)" offset="0.921875"/><stop stop-opacity="1" stop-color="rgb(73.193359%, 82.095337%, 100%)" offset="0.9375"/><stop stop-opacity="1" stop-color="rgb(73.394775%, 82.229614%, 100%)" offset="0.953125"/><stop stop-opacity="1" stop-color="rgb(73.596191%, 82.363892%, 100%)" offset="0.96875"/><stop stop-opacity="1" stop-color="rgb(73.797607%, 82.498169%, 100%)" offset="0.984375"/><stop stop-opacity="1" stop-color="rgb(73.999023%, 82.632446%, 100%)" offset="1"/></linearGradient><clipPath id="id10"><path d="M 849 323.792969 L 1011.9375 323.792969 L 1011.9375 486.542969 L 849 486.542969 Z M 849 323.792969 " clip-rule="nonzero"/></clipPath><clipPath id="id11"><path d="M 1011.9375 405.167969 C 1011.9375 406.496094 1011.90625 407.824219 1011.839844 409.152344 C 1011.773438 410.480469 1011.675781 411.804688 1011.546875 413.125 C 1011.417969 414.449219 1011.253906 415.765625 1011.058594 417.082031 C 1010.863281 418.394531 1010.636719 419.707031 1010.378906 421.007812 C 1010.117188 422.3125 1009.828125 423.609375 1009.503906 424.898438 C 1009.183594 426.1875 1008.828125 427.46875 1008.441406 428.738281 C 1008.058594 430.011719 1007.640625 431.273438 1007.191406 432.523438 C 1006.746094 433.773438 1006.269531 435.015625 1005.757812 436.242188 C 1005.25 437.46875 1004.714844 438.683594 1004.144531 439.886719 C 1003.578125 441.085938 1002.980469 442.273438 1002.355469 443.445312 C 1001.730469 444.617188 1001.074219 445.773438 1000.390625 446.914062 C 999.707031 448.054688 999 449.175781 998.261719 450.28125 C 997.523438 451.386719 996.757812 452.472656 995.96875 453.539062 C 995.175781 454.605469 994.359375 455.652344 993.515625 456.679688 C 992.671875 457.707031 991.804688 458.714844 990.914062 459.699219 C 990.023438 460.683594 989.105469 461.644531 988.167969 462.585938 C 987.230469 463.523438 986.265625 464.441406 985.28125 465.332031 C 984.300781 466.226562 983.292969 467.09375 982.265625 467.9375 C 981.242188 468.78125 980.195312 469.597656 979.125 470.390625 C 978.058594 471.179688 976.976562 471.945312 975.871094 472.683594 C 974.765625 473.421875 973.644531 474.132812 972.503906 474.816406 C 971.367188 475.5 970.210938 476.152344 969.039062 476.78125 C 967.867188 477.40625 966.683594 478.003906 965.480469 478.574219 C 964.28125 479.140625 963.066406 479.679688 961.839844 480.1875 C 960.613281 480.695312 959.375 481.175781 958.125 481.621094 C 956.875 482.070312 955.613281 482.488281 954.339844 482.871094 C 953.070312 483.257812 951.792969 483.613281 950.503906 483.933594 C 949.214844 484.257812 947.917969 484.550781 946.617188 484.808594 C 945.3125 485.066406 944.003906 485.296875 942.691406 485.488281 C 941.378906 485.683594 940.058594 485.847656 938.738281 485.976562 C 937.417969 486.109375 936.09375 486.207031 934.765625 486.269531 C 933.441406 486.335938 932.113281 486.367188 930.785156 486.367188 C 929.457031 486.367188 928.128906 486.335938 926.800781 486.269531 C 925.476562 486.207031 924.152344 486.109375 922.828125 485.976562 C 921.507812 485.847656 920.191406 485.683594 918.875 485.488281 C 917.5625 485.296875 916.253906 485.066406 914.953125 484.808594 C 913.648438 484.550781 912.355469 484.257812 911.066406 483.933594 C 909.777344 483.613281 908.496094 483.257812 907.226562 482.871094 C 905.957031 482.488281 904.695312 482.070312 903.445312 481.621094 C 902.195312 481.175781 900.957031 480.695312 899.726562 480.1875 C 898.5 479.679688 897.289062 479.140625 896.085938 478.574219 C 894.886719 478.003906 893.699219 477.40625 892.527344 476.78125 C 891.359375 476.152344 890.203125 475.5 889.0625 474.816406 C 887.925781 474.132812 886.800781 473.421875 885.699219 472.683594 C 884.59375 471.945312 883.507812 471.179688 882.441406 470.390625 C 881.375 469.597656 880.328125 468.78125 879.300781 467.9375 C 878.273438 467.09375 877.269531 466.226562 876.285156 465.332031 C 875.300781 464.441406 874.339844 463.523438 873.398438 462.585938 C 872.460938 461.644531 871.546875 460.683594 870.652344 459.699219 C 869.761719 458.714844 868.894531 457.707031 868.050781 456.679688 C 867.210938 455.652344 866.394531 454.605469 865.601562 453.539062 C 864.808594 452.472656 864.046875 451.386719 863.308594 450.28125 C 862.570312 449.175781 861.859375 448.054688 861.175781 446.914062 C 860.492188 445.773438 859.839844 444.617188 859.214844 443.445312 C 858.585938 442.273438 857.992188 441.085938 857.421875 439.886719 C 856.855469 438.683594 856.316406 437.46875 855.808594 436.242188 C 855.300781 435.015625 854.824219 433.773438 854.375 432.523438 C 853.925781 431.273438 853.511719 430.011719 853.125 428.738281 C 852.738281 427.46875 852.386719 426.1875 852.0625 424.898438 C 851.742188 423.609375 851.449219 422.3125 851.191406 421.007812 C 850.929688 419.707031 850.703125 418.394531 850.507812 417.082031 C 850.316406 415.765625 850.152344 414.449219 850.023438 413.125 C 849.890625 411.804688 849.792969 410.480469 849.730469 409.152344 C 849.664062 407.824219 849.632812 406.496094 849.632812 405.167969 C 849.632812 403.839844 849.664062 402.511719 849.730469 401.183594 C 849.792969 399.855469 849.890625 398.53125 850.023438 397.207031 C 850.152344 395.886719 850.316406 394.566406 850.507812 393.253906 C 850.703125 391.9375 850.929688 390.628906 851.191406 389.324219 C 851.449219 388.023438 851.742188 386.726562 852.0625 385.4375 C 852.386719 384.148438 852.738281 382.867188 853.125 381.59375 C 853.511719 380.324219 853.925781 379.0625 854.375 377.8125 C 854.824219 376.558594 855.300781 375.320312 855.808594 374.09375 C 856.316406 372.863281 856.855469 371.648438 857.421875 370.449219 C 857.992188 369.246094 858.585938 368.0625 859.214844 366.886719 C 859.839844 365.714844 860.492188 364.5625 861.175781 363.421875 C 861.859375 362.28125 862.570312 361.160156 863.308594 360.054688 C 864.046875 358.949219 864.808594 357.863281 865.601562 356.796875 C 866.394531 355.726562 867.210938 354.679688 868.050781 353.652344 C 868.894531 352.625 869.761719 351.621094 870.652344 350.636719 C 871.546875 349.648438 872.460938 348.6875 873.398438 347.75 C 874.339844 346.808594 875.300781 345.894531 876.285156 345 C 877.269531 344.109375 878.273438 343.238281 879.300781 342.398438 C 880.328125 341.554688 881.375 340.738281 882.441406 339.945312 C 883.507812 339.152344 884.59375 338.386719 885.699219 337.648438 C 886.800781 336.910156 887.925781 336.199219 889.0625 335.519531 C 890.203125 334.835938 891.359375 334.179688 892.527344 333.554688 C 893.699219 332.925781 894.886719 332.328125 896.085938 331.761719 C 897.289062 331.191406 898.5 330.65625 899.726562 330.144531 C 900.957031 329.636719 902.195312 329.160156 903.445312 328.710938 C 904.695312 328.265625 905.957031 327.847656 907.226562 327.460938 C 908.496094 327.074219 909.777344 326.722656 911.066406 326.398438 C 912.355469 326.074219 913.648438 325.785156 914.953125 325.523438 C 916.253906 325.265625 917.5625 325.039062 918.875 324.84375 C 920.191406 324.648438 921.507812 324.484375 922.828125 324.355469 C 924.152344 324.226562 925.476562 324.128906 926.800781 324.0625 C 928.128906 323.996094 929.457031 323.964844 930.785156 323.964844 C 932.113281 323.964844 933.441406 323.996094 934.765625 324.0625 C 936.09375 324.128906 937.417969 324.226562 938.738281 324.355469 C 940.058594 324.484375 941.378906 324.648438 942.691406 324.84375 C 944.003906 325.039062 945.3125 325.265625 946.617188 325.523438 C 947.917969 325.785156 949.214844 326.074219 950.503906 326.398438 C 951.792969 326.722656 953.070312 327.074219 954.339844 327.460938 C 955.613281 327.847656 956.875 328.265625 958.125 328.710938 C 959.375 329.160156 960.613281 329.636719 961.839844 330.144531 C 963.066406 330.65625 964.28125 331.191406 965.480469 331.761719 C 966.683594 332.328125 967.867188 332.925781 969.039062 333.554688 C 970.210938 334.179688 971.367188 334.835938 972.503906 335.519531 C 973.644531 336.199219 974.765625 336.910156 975.871094 337.648438 C 976.976562 338.386719 978.058594 339.152344 979.125 339.945312 C 980.195312 340.738281 981.242188 341.554688 982.265625 342.398438 C 983.292969 343.238281 984.300781 344.109375 985.28125 345 C 986.265625 345.894531 987.230469 346.808594 988.167969 347.75 C 989.105469 348.6875 990.023438 349.648438 990.914062 350.636719 C 991.804688 351.621094 992.671875 352.625 993.515625 353.652344 C 994.359375 354.679688 995.175781 355.726562 995.96875 356.796875 C 996.757812 357.863281 997.523438 358.949219 998.261719 360.054688 C 999 361.160156 999.707031 362.28125 1000.390625 363.421875 C 1001.074219 364.5625 1001.730469 365.714844 1002.355469 366.886719 C 1002.980469 368.0625 1003.578125 369.246094 1004.144531 370.449219 C 1004.714844 371.648438 1005.25 372.863281 1005.757812 374.09375 C 1006.269531 375.320312 1006.746094 376.558594 1007.191406 377.8125 C 1007.640625 379.0625 1008.058594 380.324219 1008.441406 381.59375 C 1008.828125 382.867188 1009.183594 384.148438 1009.503906 385.4375 C 1009.828125 386.726562 1010.117188 388.023438 1010.378906 389.324219 C 1010.636719 390.628906 1010.863281 391.9375 1011.058594 393.253906 C 1011.253906 394.566406 1011.417969 395.886719 1011.546875 397.207031 C 1011.675781 398.53125 1011.773438 399.855469 1011.839844 401.183594 C 1011.90625 402.511719 1011.9375 403.839844 1011.9375 405.167969 Z M 1011.9375 405.167969 " clip-rule="nonzero"/></clipPath><linearGradient x1="71.399958" gradientTransform="matrix(0.71, 0, 0, 0.710429, 798.937189, 323.964917)" y1="114.286003" x2="299.999955" gradientUnits="userSpaceOnUse" y2="114.286003" id="id12"><stop stop-opacity="1" stop-color="rgb(74.099731%, 82.699585%, 100%)" offset="0"/><stop stop-opacity="1" stop-color="rgb(74.198914%, 82.765198%, 100%)" offset="0.0078125"/><stop stop-opacity="1" stop-color="rgb(74.398804%, 82.899475%, 100%)" offset="0.015625"/><stop stop-opacity="1" stop-color="rgb(74.601746%, 83.035278%, 100%)" offset="0.0234375"/><stop stop-opacity="1" stop-color="rgb(74.803162%, 83.169556%, 100%)" offset="0.03125"/><stop stop-opacity="1" stop-color="rgb(75.006104%, 83.305359%, 100%)" offset="0.0390625"/><stop stop-opacity="1" stop-color="rgb(75.209045%, 83.439636%, 100%)" offset="0.046875"/><stop stop-opacity="1" stop-color="rgb(75.410461%, 83.575439%, 100%)" offset="0.0546875"/><stop stop-opacity="1" stop-color="rgb(75.613403%, 83.709717%, 100%)" offset="0.0625"/><stop stop-opacity="1" stop-color="rgb(75.816345%, 83.84552%, 100%)" offset="0.0703125"/><stop stop-opacity="1" stop-color="rgb(76.017761%, 83.981323%, 100%)" offset="0.078125"/><stop stop-opacity="1" stop-color="rgb(76.220703%, 84.115601%, 100%)" offset="0.0859375"/><stop stop-opacity="1" stop-color="rgb(76.422119%, 84.251404%, 100%)" offset="0.09375"/><stop stop-opacity="1" stop-color="rgb(76.625061%, 84.385681%, 100%)" offset="0.101562"/><stop stop-opacity="1" stop-color="rgb(76.828003%, 84.521484%, 100%)" offset="0.109375"/><stop stop-opacity="1" stop-color="rgb(77.029419%, 84.657288%, 100%)" offset="0.117187"/><stop stop-opacity="1" stop-color="rgb(77.232361%, 84.791565%, 100%)" offset="0.125"/><stop stop-opacity="1" stop-color="rgb(77.435303%, 84.927368%, 100%)" offset="0.132812"/><stop stop-opacity="1" stop-color="rgb(77.636719%, 85.061646%, 100%)" offset="0.140625"/><stop stop-opacity="1" stop-color="rgb(77.839661%, 85.197449%, 100%)" offset="0.148438"/><stop stop-opacity="1" stop-color="rgb(78.041077%, 85.331726%, 100%)" offset="0.15625"/><stop stop-opacity="1" stop-color="rgb(78.244019%, 85.467529%, 100%)" offset="0.164063"/><stop stop-opacity="1" stop-color="rgb(78.44696%, 85.603333%, 100%)" offset="0.171875"/><stop stop-opacity="1" stop-color="rgb(78.648376%, 85.73761%, 100%)" offset="0.179687"/><stop stop-opacity="1" stop-color="rgb(78.851318%, 85.873413%, 100%)" offset="0.1875"/><stop stop-opacity="1" stop-color="rgb(79.05426%, 86.00769%, 100%)" offset="0.195312"/><stop stop-opacity="1" stop-color="rgb(79.255676%, 86.143494%, 100%)" offset="0.203125"/><stop stop-opacity="1" stop-color="rgb(79.458618%, 86.279297%, 100%)" offset="0.210938"/><stop stop-opacity="1" stop-color="rgb(79.660034%, 86.413574%, 100%)" offset="0.21875"/><stop stop-opacity="1" stop-color="rgb(79.862976%, 86.549377%, 100%)" offset="0.226562"/><stop stop-opacity="1" stop-color="rgb(80.065918%, 86.683655%, 100%)" offset="0.234375"/><stop stop-opacity="1" stop-color="rgb(80.267334%, 86.819458%, 100%)" offset="0.242188"/><stop stop-opacity="1" stop-color="rgb(80.470276%, 86.955261%, 100%)" offset="0.25"/><stop stop-opacity="1" stop-color="rgb(80.673218%, 87.089539%, 100%)" offset="0.257812"/><stop stop-opacity="1" stop-color="rgb(80.874634%, 87.225342%, 100%)" offset="0.265625"/><stop stop-opacity="1" stop-color="rgb(81.077576%, 87.359619%, 100%)" offset="0.273437"/><stop stop-opacity="1" stop-color="rgb(81.278992%, 87.495422%, 100%)" offset="0.28125"/><stop stop-opacity="1" stop-color="rgb(81.481934%, 87.6297%, 100%)" offset="0.289062"/><stop stop-opacity="1" stop-color="rgb(81.684875%, 87.765503%, 100%)" offset="0.296875"/><stop stop-opacity="1" stop-color="rgb(81.886292%, 87.901306%, 100%)" offset="0.304688"/><stop stop-opacity="1" stop-color="rgb(82.089233%, 88.035583%, 100%)" offset="0.3125"/><stop stop-opacity="1" stop-color="rgb(82.292175%, 88.171387%, 100%)" offset="0.320312"/><stop stop-opacity="1" stop-color="rgb(82.493591%, 88.305664%, 100%)" offset="0.328125"/><stop stop-opacity="1" stop-color="rgb(82.696533%, 88.441467%, 100%)" offset="0.335938"/><stop stop-opacity="1" stop-color="rgb(82.897949%, 88.577271%, 100%)" offset="0.34375"/><stop stop-opacity="1" stop-color="rgb(83.100891%, 88.711548%, 100%)" offset="0.351562"/><stop stop-opacity="1" stop-color="rgb(83.303833%, 88.847351%, 100%)" offset="0.359375"/><stop stop-opacity="1" stop-color="rgb(83.505249%, 88.981628%, 100%)" offset="0.367187"/><stop stop-opacity="1" stop-color="rgb(83.708191%, 89.117432%, 100%)" offset="0.375"/><stop stop-opacity="1" stop-color="rgb(83.911133%, 89.253235%, 100%)" offset="0.382812"/><stop stop-opacity="1" stop-color="rgb(84.112549%, 89.387512%, 100%)" offset="0.390625"/><stop stop-opacity="1" stop-color="rgb(84.315491%, 89.523315%, 100%)" offset="0.398438"/><stop stop-opacity="1" stop-color="rgb(84.516907%, 89.657593%, 100%)" offset="0.40625"/><stop stop-opacity="1" stop-color="rgb(84.719849%, 89.793396%, 100%)" offset="0.414062"/><stop stop-opacity="1" stop-color="rgb(84.922791%, 89.927673%, 100%)" offset="0.421875"/><stop stop-opacity="1" stop-color="rgb(85.124207%, 90.063477%, 100%)" offset="0.429688"/><stop stop-opacity="1" stop-color="rgb(85.327148%, 90.19928%, 100%)" offset="0.4375"/><stop stop-opacity="1" stop-color="rgb(85.53009%, 90.333557%, 100%)" offset="0.445312"/><stop stop-opacity="1" stop-color="rgb(85.731506%, 90.46936%, 100%)" offset="0.453125"/><stop stop-opacity="1" stop-color="rgb(85.934448%, 90.603638%, 100%)" offset="0.460937"/><stop stop-opacity="1" stop-color="rgb(86.135864%, 90.739441%, 100%)" offset="0.46875"/><stop stop-opacity="1" stop-color="rgb(86.338806%, 90.875244%, 100%)" offset="0.476562"/><stop stop-opacity="1" stop-color="rgb(86.541748%, 91.009521%, 100%)" offset="0.484375"/><stop stop-opacity="1" stop-color="rgb(86.743164%, 91.145325%, 100%)" offset="0.492188"/><stop stop-opacity="1" stop-color="rgb(86.946106%, 91.279602%, 100%)" offset="0.5"/><stop stop-opacity="1" stop-color="rgb(87.149048%, 91.415405%, 100%)" offset="0.507812"/><stop stop-opacity="1" stop-color="rgb(87.350464%, 91.551208%, 100%)" offset="0.515625"/><stop stop-opacity="1" stop-color="rgb(87.553406%, 91.685486%, 100%)" offset="0.523438"/><stop stop-opacity="1" stop-color="rgb(87.754822%, 91.821289%, 100%)" offset="0.53125"/><stop stop-opacity="1" stop-color="rgb(87.957764%, 91.955566%, 100%)" offset="0.539062"/><stop stop-opacity="1" stop-color="rgb(88.160706%, 92.09137%, 100%)" offset="0.546875"/><stop stop-opacity="1" stop-color="rgb(88.362122%, 92.225647%, 100%)" offset="0.554688"/><stop stop-opacity="1" stop-color="rgb(88.565063%, 92.36145%, 100%)" offset="0.5625"/><stop stop-opacity="1" stop-color="rgb(88.768005%, 92.497253%, 100%)" offset="0.570312"/><stop stop-opacity="1" stop-color="rgb(88.969421%, 92.631531%, 100%)" offset="0.578125"/><stop stop-opacity="1" stop-color="rgb(89.172363%, 92.767334%, 100%)" offset="0.585938"/><stop stop-opacity="1" stop-color="rgb(89.373779%, 92.901611%, 100%)" offset="0.59375"/><stop stop-opacity="1" stop-color="rgb(89.576721%, 93.037415%, 100%)" offset="0.601563"/><stop stop-opacity="1" stop-color="rgb(89.779663%, 93.173218%, 100%)" offset="0.609375"/><stop stop-opacity="1" stop-color="rgb(89.981079%, 93.307495%, 100%)" offset="0.617188"/><stop stop-opacity="1" stop-color="rgb(90.184021%, 93.443298%, 100%)" offset="0.625"/><stop stop-opacity="1" stop-color="rgb(90.386963%, 93.577576%, 100%)" offset="0.632813"/><stop stop-opacity="1" stop-color="rgb(90.588379%, 93.713379%, 100%)" offset="0.640625"/><stop stop-opacity="1" stop-color="rgb(90.791321%, 93.847656%, 100%)" offset="0.648438"/><stop stop-opacity="1" stop-color="rgb(90.992737%, 93.983459%, 100%)" offset="0.65625"/><stop stop-opacity="1" stop-color="rgb(91.195679%, 94.119263%, 100%)" offset="0.664062"/><stop stop-opacity="1" stop-color="rgb(91.398621%, 94.25354%, 100%)" offset="0.671875"/><stop stop-opacity="1" stop-color="rgb(91.600037%, 94.389343%, 100%)" offset="0.679688"/><stop stop-opacity="1" stop-color="rgb(91.802979%, 94.523621%, 100%)" offset="0.6875"/><stop stop-opacity="1" stop-color="rgb(92.00592%, 94.659424%, 100%)" offset="0.695312"/><stop stop-opacity="1" stop-color="rgb(92.207336%, 94.795227%, 100%)" offset="0.703125"/><stop stop-opacity="1" stop-color="rgb(92.410278%, 94.929504%, 100%)" offset="0.710938"/><stop stop-opacity="1" stop-color="rgb(92.611694%, 95.065308%, 100%)" offset="0.71875"/><stop stop-opacity="1" stop-color="rgb(92.814636%, 95.199585%, 100%)" offset="0.726562"/><stop stop-opacity="1" stop-color="rgb(93.017578%, 95.335388%, 100%)" offset="0.734375"/><stop stop-opacity="1" stop-color="rgb(93.218994%, 95.471191%, 100%)" offset="0.742188"/><stop stop-opacity="1" stop-color="rgb(93.421936%, 95.605469%, 100%)" offset="0.75"/><stop stop-opacity="1" stop-color="rgb(93.624878%, 95.741272%, 100%)" offset="0.757812"/><stop stop-opacity="1" stop-color="rgb(93.826294%, 95.875549%, 100%)" offset="0.765625"/><stop stop-opacity="1" stop-color="rgb(94.029236%, 96.011353%, 100%)" offset="0.773438"/><stop stop-opacity="1" stop-color="rgb(94.230652%, 96.14563%, 100%)" offset="0.78125"/><stop stop-opacity="1" stop-color="rgb(94.433594%, 96.281433%, 100%)" offset="0.789062"/><stop stop-opacity="1" stop-color="rgb(94.636536%, 96.417236%, 100%)" offset="0.796875"/><stop stop-opacity="1" stop-color="rgb(94.837952%, 96.551514%, 100%)" offset="0.804688"/><stop stop-opacity="1" stop-color="rgb(95.040894%, 96.687317%, 100%)" offset="0.8125"/><stop stop-opacity="1" stop-color="rgb(95.243835%, 96.821594%, 100%)" offset="0.820313"/><stop stop-opacity="1" stop-color="rgb(95.445251%, 96.957397%, 100%)" offset="0.828125"/><stop stop-opacity="1" stop-color="rgb(95.648193%, 97.093201%, 100%)" offset="0.835938"/><stop stop-opacity="1" stop-color="rgb(95.849609%, 97.227478%, 100%)" offset="0.84375"/><stop stop-opacity="1" stop-color="rgb(96.052551%, 97.363281%, 100%)" offset="0.851562"/><stop stop-opacity="1" stop-color="rgb(96.255493%, 97.497559%, 100%)" offset="0.859375"/><stop stop-opacity="1" stop-color="rgb(96.456909%, 97.633362%, 100%)" offset="0.867188"/><stop stop-opacity="1" stop-color="rgb(96.659851%, 97.769165%, 100%)" offset="0.875"/><stop stop-opacity="1" stop-color="rgb(96.861267%, 97.903442%, 100%)" offset="0.882812"/><stop stop-opacity="1" stop-color="rgb(97.064209%, 98.039246%, 100%)" offset="0.890625"/><stop stop-opacity="1" stop-color="rgb(97.267151%, 98.173523%, 100%)" offset="0.898438"/><stop stop-opacity="1" stop-color="rgb(97.468567%, 98.309326%, 100%)" offset="0.90625"/><stop stop-opacity="1" stop-color="rgb(97.671509%, 98.443604%, 100%)" offset="0.914062"/><stop stop-opacity="1" stop-color="rgb(97.874451%, 98.579407%, 100%)" offset="0.921875"/><stop stop-opacity="1" stop-color="rgb(98.075867%, 98.71521%, 100%)" offset="0.929688"/><stop stop-opacity="1" stop-color="rgb(98.278809%, 98.849487%, 100%)" offset="0.9375"/><stop stop-opacity="1" stop-color="rgb(98.480225%, 98.985291%, 100%)" offset="0.945312"/><stop stop-opacity="1" stop-color="rgb(98.683167%, 99.119568%, 100%)" offset="0.953125"/><stop stop-opacity="1" stop-color="rgb(98.886108%, 99.255371%, 100%)" offset="0.960938"/><stop stop-opacity="1" stop-color="rgb(99.087524%, 99.391174%, 100%)" offset="0.96875"/><stop stop-opacity="1" stop-color="rgb(99.290466%, 99.525452%, 100%)" offset="0.976562"/><stop stop-opacity="1" stop-color="rgb(99.493408%, 99.661255%, 100%)" offset="0.984375"/><stop stop-opacity="1" stop-color="rgb(99.694824%, 99.795532%, 100%)" offset="0.992187"/><stop stop-opacity="1" stop-color="rgb(99.897766%, 99.931335%, 100%)" offset="1"/></linearGradient></defs><rect x="-144" width="1728" fill="#ffffff" y="-80.999999" height="971.999992" fill-opacity="1"/><rect x="-144" width="1728" fill="#1764ff" y="-80.999999" height="971.999992" fill-opacity="1"/><rect x="-144" width="1728" fill="#ffffff" y="-80.999999" height="971.999992" fill-opacity="1"/><rect x="-144" width="1728" fill="#1764ff" y="-80.999999" height="971.999992" fill-opacity="1"/><g fill="#ffffff" fill-opacity="1"><g transform="translate(52.071388, 229.661464)"><g><path d="M 45.1875 -10.34375 L 22.6875 -10.34375 L 19.265625 0 L 0.71875 0 L 23.84375 -63.453125 L 44.1875 -63.453125 L 67.234375 0 L 48.59375 0 Z M 40.765625 -23.84375 L 33.9375 -44.375 L 27.1875 -23.84375 Z M 40.765625 -23.84375 "/></g></g></g><g fill="#ffffff" fill-opacity="1"><g transform="translate(120.02132, 229.661464)"><g><path d="M 23.671875 -51.125 C 27.085938 -51.125 30.070312 -50.429688 32.625 -49.046875 C 35.175781 -47.671875 37.140625 -45.8125 38.515625 -43.46875 L 38.515625 -50.484375 L 56.15625 -50.484375 L 56.15625 -0.546875 C 56.15625 4.191406 55.253906 8.46875 53.453125 12.28125 C 51.660156 16.09375 48.859375 19.140625 45.046875 21.421875 C 41.234375 23.703125 36.414062 24.84375 30.59375 24.84375 C 22.800781 24.84375 16.5625 23.007812 11.875 19.34375 C 7.195312 15.6875 4.53125 10.707031 3.875 4.40625 L 21.234375 4.40625 C 21.597656 6.03125 22.5 7.289062 23.9375 8.1875 C 25.375 9.09375 27.234375 9.546875 29.515625 9.546875 C 35.515625 9.546875 38.515625 6.179688 38.515625 -0.546875 L 38.515625 -7.015625 C 37.140625 -4.679688 35.175781 -2.820312 32.625 -1.4375 C 30.070312 -0.0625 27.085938 0.625 23.671875 0.625 C 19.648438 0.625 16.003906 -0.421875 12.734375 -2.515625 C 9.460938 -4.617188 6.878906 -7.632812 4.984375 -11.5625 C 3.097656 -15.488281 2.15625 -20.066406 2.15625 -25.296875 C 2.15625 -30.515625 3.097656 -35.070312 4.984375 -38.96875 C 6.878906 -42.863281 9.460938 -45.863281 12.734375 -47.96875 C 16.003906 -50.070312 19.648438 -51.125 23.671875 -51.125 Z M 38.515625 -25.296875 C 38.515625 -28.535156 37.628906 -31.082031 35.859375 -32.9375 C 34.085938 -34.800781 31.914062 -35.734375 29.34375 -35.734375 C 26.695312 -35.734375 24.503906 -34.816406 22.765625 -32.984375 C 21.023438 -31.148438 20.15625 -28.585938 20.15625 -25.296875 C 20.15625 -22.054688 21.023438 -19.488281 22.765625 -17.59375 C 24.503906 -15.707031 26.695312 -14.765625 29.34375 -14.765625 C 31.914062 -14.765625 34.085938 -15.691406 35.859375 -17.546875 C 37.628906 -19.410156 38.515625 -21.992188 38.515625 -25.296875 Z M 38.515625 -25.296875 "/></g></g></g><g fill="#ffffff" fill-opacity="1"><g transform="translate(181.221265, 229.661464)"><g><path d="M 13.953125 -55.171875 C 10.828125 -55.171875 8.316406 -56.023438 6.421875 -57.734375 C 4.535156 -59.441406 3.59375 -61.585938 3.59375 -64.171875 C 3.59375 -66.804688 4.535156 -68.992188 6.421875 -70.734375 C 8.316406 -72.472656 10.828125 -73.34375 13.953125 -73.34375 C 17.015625 -73.34375 19.488281 -72.472656 21.375 -70.734375 C 23.257812 -68.992188 24.203125 -66.804688 24.203125 -64.171875 C 24.203125 -61.585938 23.257812 -59.441406 21.375 -57.734375 C 19.488281 -56.023438 17.015625 -55.171875 13.953125 -55.171875 Z M 22.6875 -50.484375 L 22.6875 0 L 5.046875 0 L 5.046875 -50.484375 Z M 22.6875 -50.484375 "/></g></g></g><g fill="#ffffff" fill-opacity="1"><g transform="translate(208.941234, 229.661464)"><g><path d="M 22.6875 -66.59375 L 22.6875 0 L 5.046875 0 L 5.046875 -66.59375 Z M 22.6875 -66.59375 "/></g></g></g><g fill="#ffffff" fill-opacity="1"><g transform="translate(236.661204, 229.661464)"><g><path d="M 53.28125 -25.828125 C 53.28125 -24.453125 53.191406 -23.070312 53.015625 -21.6875 L 19.625 -21.6875 C 19.800781 -18.925781 20.5625 -16.867188 21.90625 -15.515625 C 23.257812 -14.171875 24.988281 -13.5 27.09375 -13.5 C 30.03125 -13.5 32.128906 -14.816406 33.390625 -17.453125 L 52.203125 -17.453125 C 51.421875 -13.972656 49.90625 -10.867188 47.65625 -8.140625 C 45.40625 -5.410156 42.566406 -3.265625 39.140625 -1.703125 C 35.722656 -0.148438 31.945312 0.625 27.8125 0.625 C 22.832031 0.625 18.40625 -0.421875 14.53125 -2.515625 C 10.664062 -4.617188 7.632812 -7.617188 5.4375 -11.515625 C 3.25 -15.421875 2.15625 -20.015625 2.15625 -25.296875 C 2.15625 -30.566406 3.234375 -35.132812 5.390625 -39 C 7.554688 -42.875 10.570312 -45.863281 14.4375 -47.96875 C 18.3125 -50.070312 22.769531 -51.125 27.8125 -51.125 C 32.789062 -51.125 37.195312 -50.101562 41.03125 -48.0625 C 44.875 -46.019531 47.875 -43.09375 50.03125 -39.28125 C 52.195312 -35.46875 53.28125 -30.984375 53.28125 -25.828125 Z M 35.28125 -30.234375 C 35.28125 -32.398438 34.554688 -34.097656 33.109375 -35.328125 C 31.671875 -36.554688 29.875 -37.171875 27.71875 -37.171875 C 25.5625 -37.171875 23.789062 -36.582031 22.40625 -35.40625 C 21.03125 -34.238281 20.128906 -32.515625 19.703125 -30.234375 Z M 35.28125 -30.234375 "/></g></g></g><g fill="#ffffff" fill-opacity="1"><g transform="translate(292.101154, 229.661464)"><g><path d="M 13.59375 0.71875 C 10.46875 0.71875 7.957031 -0.132812 6.0625 -1.84375 C 4.175781 -3.550781 3.234375 -5.726562 3.234375 -8.375 C 3.234375 -11.007812 4.175781 -13.195312 6.0625 -14.9375 C 7.957031 -16.675781 10.46875 -17.546875 13.59375 -17.546875 C 16.65625 -17.546875 19.128906 -16.675781 21.015625 -14.9375 C 22.898438 -13.195312 23.84375 -11.007812 23.84375 -8.375 C 23.84375 -5.789062 22.898438 -3.628906 21.015625 -1.890625 C 19.128906 -0.148438 16.65625 0.71875 13.59375 0.71875 Z M 13.59375 0.71875 "/></g></g></g><g fill="#ffffff" fill-opacity="1"><g transform="translate(52.071388, 355.661457)"><g><path d="M 28.984375 0.625 C 21.597656 0.625 15.535156 -1.128906 10.796875 -4.640625 C 6.054688 -8.148438 3.507812 -13.171875 3.15625 -19.703125 L 21.953125 -19.703125 C 22.140625 -17.484375 22.800781 -15.863281 23.9375 -14.84375 C 25.082031 -13.820312 26.550781 -13.3125 28.34375 -13.3125 C 29.96875 -13.3125 31.304688 -13.71875 32.359375 -14.53125 C 33.410156 -15.34375 33.9375 -16.46875 33.9375 -17.90625 C 33.9375 -19.769531 33.0625 -21.210938 31.3125 -22.234375 C 29.570312 -23.253906 26.753906 -24.394531 22.859375 -25.65625 C 18.722656 -27.03125 15.378906 -28.363281 12.828125 -29.65625 C 10.273438 -30.945312 8.050781 -32.835938 6.15625 -35.328125 C 4.269531 -37.816406 3.328125 -41.070312 3.328125 -45.09375 C 3.328125 -49.164062 4.347656 -52.65625 6.390625 -55.5625 C 8.429688 -58.476562 11.25 -60.6875 14.84375 -62.1875 C 18.445312 -63.6875 22.53125 -64.4375 27.09375 -64.4375 C 34.46875 -64.4375 40.359375 -62.710938 44.765625 -59.265625 C 49.179688 -55.816406 51.539062 -50.972656 51.84375 -44.734375 L 32.671875 -44.734375 C 32.609375 -46.648438 32.019531 -48.085938 30.90625 -49.046875 C 29.800781 -50.003906 28.378906 -50.484375 26.640625 -50.484375 C 25.316406 -50.484375 24.234375 -50.09375 23.390625 -49.3125 C 22.554688 -48.539062 22.140625 -47.429688 22.140625 -45.984375 C 22.140625 -44.785156 22.601562 -43.75 23.53125 -42.875 C 24.46875 -42.007812 25.625 -41.257812 27 -40.625 C 28.375 -40 30.414062 -39.207031 33.125 -38.25 C 37.144531 -36.875 40.457031 -35.507812 43.0625 -34.15625 C 45.675781 -32.800781 47.925781 -30.910156 49.8125 -28.484375 C 51.707031 -26.054688 52.65625 -22.984375 52.65625 -19.265625 C 52.65625 -15.484375 51.707031 -12.09375 49.8125 -9.09375 C 47.925781 -6.09375 45.195312 -3.722656 41.625 -1.984375 C 38.050781 -0.242188 33.835938 0.625 28.984375 0.625 Z M 28.984375 0.625 "/></g></g></g><g fill="#ffffff" fill-opacity="1"><g transform="translate(107.871335, 355.661457)"><g><path d="M 53.28125 -25.828125 C 53.28125 -24.453125 53.191406 -23.070312 53.015625 -21.6875 L 19.625 -21.6875 C 19.800781 -18.925781 20.5625 -16.867188 21.90625 -15.515625 C 23.257812 -14.171875 24.988281 -13.5 27.09375 -13.5 C 30.03125 -13.5 32.128906 -14.816406 33.390625 -17.453125 L 52.203125 -17.453125 C 51.421875 -13.972656 49.90625 -10.867188 47.65625 -8.140625 C 45.40625 -5.410156 42.566406 -3.265625 39.140625 -1.703125 C 35.722656 -0.148438 31.945312 0.625 27.8125 0.625 C 22.832031 0.625 18.40625 -0.421875 14.53125 -2.515625 C 10.664062 -4.617188 7.632812 -7.617188 5.4375 -11.515625 C 3.25 -15.421875 2.15625 -20.015625 2.15625 -25.296875 C 2.15625 -30.566406 3.234375 -35.132812 5.390625 -39 C 7.554688 -42.875 10.570312 -45.863281 14.4375 -47.96875 C 18.3125 -50.070312 22.769531 -51.125 27.8125 -51.125 C 32.789062 -51.125 37.195312 -50.101562 41.03125 -48.0625 C 44.875 -46.019531 47.875 -43.09375 50.03125 -39.28125 C 52.195312 -35.46875 53.28125 -30.984375 53.28125 -25.828125 Z M 35.28125 -30.234375 C 35.28125 -32.398438 34.554688 -34.097656 33.109375 -35.328125 C 31.671875 -36.554688 29.875 -37.171875 27.71875 -37.171875 C 25.5625 -37.171875 23.789062 -36.582031 22.40625 -35.40625 C 21.03125 -34.238281 20.128906 -32.515625 19.703125 -30.234375 Z M 35.28125 -30.234375 "/></g></g></g><g fill="#ffffff" fill-opacity="1"><g transform="translate(163.311285, 355.661457)"><g><path d="M 2.15625 -25.296875 C 2.15625 -30.515625 3.234375 -35.070312 5.390625 -38.96875 C 7.554688 -42.863281 10.570312 -45.863281 14.4375 -47.96875 C 18.3125 -50.070312 22.738281 -51.125 27.71875 -51.125 C 34.132812 -51.125 39.53125 -49.367188 43.90625 -45.859375 C 48.289062 -42.347656 51.113281 -37.441406 52.375 -31.140625 L 33.65625 -31.140625 C 32.582031 -34.441406 30.484375 -36.09375 27.359375 -36.09375 C 25.140625 -36.09375 23.382812 -35.175781 22.09375 -33.34375 C 20.800781 -31.507812 20.15625 -28.828125 20.15625 -25.296875 C 20.15625 -21.753906 20.800781 -19.050781 22.09375 -17.1875 C 23.382812 -15.332031 25.140625 -14.40625 27.359375 -14.40625 C 30.535156 -14.40625 32.632812 -16.050781 33.65625 -19.34375 L 52.375 -19.34375 C 51.113281 -13.101562 48.289062 -8.210938 43.90625 -4.671875 C 39.53125 -1.140625 34.132812 0.625 27.71875 0.625 C 22.738281 0.625 18.3125 -0.421875 14.4375 -2.515625 C 10.570312 -4.617188 7.554688 -7.617188 5.390625 -11.515625 C 3.234375 -15.421875 2.15625 -20.015625 2.15625 -25.296875 Z M 2.15625 -25.296875 "/></g></g></g><g fill="#ffffff" fill-opacity="1"><g transform="translate(217.941233, 355.661457)"><g><path d="M 56.703125 -50.484375 L 56.703125 0 L 38.96875 0 L 38.96875 -7.203125 C 37.46875 -4.921875 35.394531 -3.070312 32.75 -1.65625 C 30.113281 -0.25 27.085938 0.453125 23.671875 0.453125 C 17.785156 0.453125 13.148438 -1.476562 9.765625 -5.34375 C 6.378906 -9.21875 4.6875 -14.488281 4.6875 -21.15625 L 4.6875 -50.484375 L 22.234375 -50.484375 L 22.234375 -23.40625 C 22.234375 -20.519531 22.992188 -18.25 24.515625 -16.59375 C 26.046875 -14.945312 28.070312 -14.125 30.59375 -14.125 C 33.175781 -14.125 35.21875 -14.945312 36.71875 -16.59375 C 38.21875 -18.25 38.96875 -20.519531 38.96875 -23.40625 L 38.96875 -50.484375 Z M 56.703125 -50.484375 "/></g></g></g><g fill="#ffffff" fill-opacity="1"><g transform="translate(279.681178, 355.661457)"><g><path d="M 22.6875 -41.578125 C 24.664062 -44.460938 27.0625 -46.742188 29.875 -48.421875 C 32.695312 -50.097656 35.726562 -50.9375 38.96875 -50.9375 L 38.96875 -32.125 L 34.015625 -32.125 C 30.179688 -32.125 27.332031 -31.375 25.46875 -29.875 C 23.613281 -28.375 22.6875 -25.765625 22.6875 -22.046875 L 22.6875 0 L 5.046875 0 L 5.046875 -50.484375 L 22.6875 -50.484375 Z M 22.6875 -41.578125 "/></g></g></g><g fill="#ffffff" fill-opacity="1"><g transform="translate(319.911142, 355.661457)"><g><path d="M 13.953125 -55.171875 C 10.828125 -55.171875 8.316406 -56.023438 6.421875 -57.734375 C 4.535156 -59.441406 3.59375 -61.585938 3.59375 -64.171875 C 3.59375 -66.804688 4.535156 -68.992188 6.421875 -70.734375 C 8.316406 -72.472656 10.828125 -73.34375 13.953125 -73.34375 C 17.015625 -73.34375 19.488281 -72.472656 21.375 -70.734375 C 23.257812 -68.992188 24.203125 -66.804688 24.203125 -64.171875 C 24.203125 -61.585938 23.257812 -59.441406 21.375 -57.734375 C 19.488281 -56.023438 17.015625 -55.171875 13.953125 -55.171875 Z M 22.6875 -50.484375 L 22.6875 0 L 5.046875 0 L 5.046875 -50.484375 Z M 22.6875 -50.484375 "/></g></g></g><g fill="#ffffff" fill-opacity="1"><g transform="translate(347.631111, 355.661457)"><g><path d="M 34.828125 -15.03125 L 34.828125 0 L 27.1875 0 C 14.28125 0 7.828125 -6.390625 7.828125 -19.171875 L 7.828125 -35.8125 L 1.625 -35.8125 L 1.625 -50.484375 L 7.828125 -50.484375 L 7.828125 -62.734375 L 25.5625 -62.734375 L 25.5625 -50.484375 L 34.734375 -50.484375 L 34.734375 -35.8125 L 25.5625 -35.8125 L 25.5625 -18.90625 C 25.5625 -17.519531 25.875 -16.523438 26.5 -15.921875 C 27.132812 -15.328125 28.203125 -15.03125 29.703125 -15.03125 Z M 34.828125 -15.03125 "/></g></g></g><g fill="#ffffff" fill-opacity="1"><g transform="translate(385.521078, 355.661457)"><g><path d="M 59.40625 -50.484375 L 27.359375 24.03125 L 8.1875 24.03125 L 20.25 -2.15625 L -0.453125 -50.484375 L 19.171875 -50.484375 L 29.796875 -21.875 L 40.046875 -50.484375 Z M 59.40625 -50.484375 "/></g></g></g><g fill="#ffffff" fill-opacity="1"><g transform="translate(444.471011, 355.661457)"><g><path d="M 13.59375 0.71875 C 10.46875 0.71875 7.957031 -0.132812 6.0625 -1.84375 C 4.175781 -3.550781 3.234375 -5.726562 3.234375 -8.375 C 3.234375 -11.007812 4.175781 -13.195312 6.0625 -14.9375 C 7.957031 -16.675781 10.46875 -17.546875 13.59375 -17.546875 C 16.65625 -17.546875 19.128906 -16.675781 21.015625 -14.9375 C 22.898438 -13.195312 23.84375 -11.007812 23.84375 -8.375 C 23.84375 -5.789062 22.898438 -3.628906 21.015625 -1.890625 C 19.128906 -0.148438 16.65625 0.71875 13.59375 0.71875 Z M 13.59375 0.71875 "/></g></g></g><g fill="#ffffff" fill-opacity="1"><g transform="translate(52.071388, 481.661451)"><g><path d="M 52.828125 -63.453125 L 52.828125 -49.40625 L 35.90625 -49.40625 L 35.90625 0 L 18.265625 0 L 18.265625 -49.40625 L 1.53125 -49.40625 L 1.53125 -63.453125 Z M 52.828125 -63.453125 "/></g></g></g><g fill="#ffffff" fill-opacity="1"><g transform="translate(106.431336, 481.661451)"><g><path d="M 22.6875 -41.578125 C 24.664062 -44.460938 27.0625 -46.742188 29.875 -48.421875 C 32.695312 -50.097656 35.726562 -50.9375 38.96875 -50.9375 L 38.96875 -32.125 L 34.015625 -32.125 C 30.179688 -32.125 27.332031 -31.375 25.46875 -29.875 C 23.613281 -28.375 22.6875 -25.765625 22.6875 -22.046875 L 22.6875 0 L 5.046875 0 L 5.046875 -50.484375 L 22.6875 -50.484375 Z M 22.6875 -41.578125 "/></g></g></g><g fill="#ffffff" fill-opacity="1"><g transform="translate(146.6613, 481.661451)"><g><path d="M 2.15625 -25.296875 C 2.15625 -30.515625 3.097656 -35.070312 4.984375 -38.96875 C 6.878906 -42.863281 9.460938 -45.863281 12.734375 -47.96875 C 16.003906 -50.070312 19.648438 -51.125 23.671875 -51.125 C 27.148438 -51.125 30.148438 -50.429688 32.671875 -49.046875 C 35.191406 -47.671875 37.140625 -45.8125 38.515625 -43.46875 L 38.515625 -50.484375 L 56.15625 -50.484375 L 56.15625 0 L 38.515625 0 L 38.515625 -7.015625 C 37.140625 -4.679688 35.175781 -2.820312 32.625 -1.4375 C 30.070312 -0.0625 27.085938 0.625 23.671875 0.625 C 19.648438 0.625 16.003906 -0.421875 12.734375 -2.515625 C 9.460938 -4.617188 6.878906 -7.632812 4.984375 -11.5625 C 3.097656 -15.488281 2.15625 -20.066406 2.15625 -25.296875 Z M 38.515625 -25.296875 C 38.515625 -28.535156 37.628906 -31.082031 35.859375 -32.9375 C 34.085938 -34.800781 31.914062 -35.734375 29.34375 -35.734375 C 26.695312 -35.734375 24.503906 -34.816406 22.765625 -32.984375 C 21.023438 -31.148438 20.15625 -28.585938 20.15625 -25.296875 C 20.15625 -22.054688 21.023438 -19.488281 22.765625 -17.59375 C 24.503906 -15.707031 26.695312 -14.765625 29.34375 -14.765625 C 31.914062 -14.765625 34.085938 -15.691406 35.859375 -17.546875 C 37.628906 -19.410156 38.515625 -21.992188 38.515625 -25.296875 Z M 38.515625 -25.296875 "/></g></g></g><g fill="#ffffff" fill-opacity="1"><g transform="translate(207.861244, 481.661451)"><g><path d="M 38.0625 -50.9375 C 43.882812 -50.9375 48.503906 -49 51.921875 -45.125 C 55.347656 -41.257812 57.0625 -36.03125 57.0625 -29.4375 L 57.0625 0 L 39.421875 0 L 39.421875 -27.09375 C 39.421875 -29.96875 38.671875 -32.226562 37.171875 -33.875 C 35.671875 -35.53125 33.660156 -36.359375 31.140625 -36.359375 C 28.503906 -36.359375 26.4375 -35.53125 24.9375 -33.875 C 23.4375 -32.226562 22.6875 -29.96875 22.6875 -27.09375 L 22.6875 0 L 5.046875 0 L 5.046875 -50.484375 L 22.6875 -50.484375 L 22.6875 -43.296875 C 24.238281 -45.566406 26.332031 -47.40625 28.96875 -48.8125 C 31.613281 -50.226562 34.644531 -50.9375 38.0625 -50.9375 Z M 38.0625 -50.9375 "/></g></g></g><g fill="#ffffff" fill-opacity="1"><g transform="translate(269.601178, 481.661451)"><g><path d="M 26.546875 0.625 C 21.984375 0.625 17.914062 -0.132812 14.34375 -1.65625 C 10.78125 -3.1875 7.960938 -5.285156 5.890625 -7.953125 C 3.828125 -10.628906 2.675781 -13.648438 2.4375 -17.015625 L 19.53125 -17.015625 C 19.769531 -15.390625 20.519531 -14.125 21.78125 -13.21875 C 23.039062 -12.320312 24.597656 -11.875 26.453125 -11.875 C 27.898438 -11.875 29.039062 -12.175781 29.875 -12.78125 C 30.71875 -13.382812 31.140625 -14.164062 31.140625 -15.125 C 31.140625 -16.382812 30.445312 -17.3125 29.0625 -17.90625 C 27.6875 -18.507812 25.410156 -19.171875 22.234375 -19.890625 C 18.628906 -20.609375 15.625 -21.414062 13.21875 -22.3125 C 10.820312 -23.21875 8.738281 -24.691406 6.96875 -26.734375 C 5.195312 -28.773438 4.3125 -31.535156 4.3125 -35.015625 C 4.3125 -38.015625 5.125 -40.726562 6.75 -43.15625 C 8.375 -45.582031 10.757812 -47.515625 13.90625 -48.953125 C 17.050781 -50.398438 20.847656 -51.125 25.296875 -51.125 C 31.890625 -51.125 37.078125 -49.503906 40.859375 -46.265625 C 44.640625 -43.023438 46.832031 -38.765625 47.4375 -33.484375 L 31.5 -33.484375 C 31.195312 -35.097656 30.488281 -36.335938 29.375 -37.203125 C 28.269531 -38.078125 26.789062 -38.515625 24.9375 -38.515625 C 23.488281 -38.515625 22.390625 -38.242188 21.640625 -37.703125 C 20.890625 -37.171875 20.515625 -36.421875 20.515625 -35.453125 C 20.515625 -34.253906 21.203125 -33.335938 22.578125 -32.703125 C 23.960938 -32.078125 26.1875 -31.4375 29.25 -30.78125 C 32.90625 -30 35.945312 -29.128906 38.375 -28.171875 C 40.8125 -27.210938 42.941406 -25.664062 44.765625 -23.53125 C 46.597656 -21.40625 47.515625 -18.507812 47.515625 -14.84375 C 47.515625 -11.90625 46.660156 -9.265625 44.953125 -6.921875 C 43.242188 -4.585938 40.8125 -2.742188 37.65625 -1.390625 C 34.507812 -0.046875 30.804688 0.625 26.546875 0.625 Z M 26.546875 0.625 "/></g></g></g><g fill="#ffffff" fill-opacity="1"><g transform="translate(320.721133, 481.661451)"><g><path d="M 22.6875 -43.46875 C 24.0625 -45.8125 26.007812 -47.671875 28.53125 -49.046875 C 31.050781 -50.429688 34.019531 -51.125 37.4375 -51.125 C 41.457031 -51.125 45.101562 -50.070312 48.375 -47.96875 C 51.644531 -45.863281 54.222656 -42.863281 56.109375 -38.96875 C 58.003906 -35.070312 58.953125 -30.515625 58.953125 -25.296875 C 58.953125 -20.066406 58.003906 -15.488281 56.109375 -11.5625 C 54.222656 -7.632812 51.644531 -4.617188 48.375 -2.515625 C 45.101562 -0.421875 41.457031 0.625 37.4375 0.625 C 34.019531 0.625 31.066406 -0.0625 28.578125 -1.4375 C 26.085938 -2.820312 24.125 -4.679688 22.6875 -7.015625 L 22.6875 24.125 L 5.046875 24.125 L 5.046875 -50.484375 L 22.6875 -50.484375 Z M 41.046875 -25.296875 C 41.046875 -28.585938 40.160156 -31.148438 38.390625 -32.984375 C 36.617188 -34.816406 34.441406 -35.734375 31.859375 -35.734375 C 29.273438 -35.734375 27.097656 -34.800781 25.328125 -32.9375 C 23.566406 -31.082031 22.6875 -28.535156 22.6875 -25.296875 C 22.6875 -21.992188 23.566406 -19.410156 25.328125 -17.546875 C 27.097656 -15.691406 29.273438 -14.765625 31.859375 -14.765625 C 34.441406 -14.765625 36.617188 -15.707031 38.390625 -17.59375 C 40.160156 -19.488281 41.046875 -22.054688 41.046875 -25.296875 Z M 41.046875 -25.296875 "/></g></g></g><g fill="#ffffff" fill-opacity="1"><g transform="translate(381.921088, 481.661451)"><g><path d="M 2.15625 -25.296875 C 2.15625 -30.515625 3.097656 -35.070312 4.984375 -38.96875 C 6.878906 -42.863281 9.460938 -45.863281 12.734375 -47.96875 C 16.003906 -50.070312 19.648438 -51.125 23.671875 -51.125 C 27.148438 -51.125 30.148438 -50.429688 32.671875 -49.046875 C 35.191406 -47.671875 37.140625 -45.8125 38.515625 -43.46875 L 38.515625 -50.484375 L 56.15625 -50.484375 L 56.15625 0 L 38.515625 0 L 38.515625 -7.015625 C 37.140625 -4.679688 35.175781 -2.820312 32.625 -1.4375 C 30.070312 -0.0625 27.085938 0.625 23.671875 0.625 C 19.648438 0.625 16.003906 -0.421875 12.734375 -2.515625 C 9.460938 -4.617188 6.878906 -7.632812 4.984375 -11.5625 C 3.097656 -15.488281 2.15625 -20.066406 2.15625 -25.296875 Z M 38.515625 -25.296875 C 38.515625 -28.535156 37.628906 -31.082031 35.859375 -32.9375 C 34.085938 -34.800781 31.914062 -35.734375 29.34375 -35.734375 C 26.695312 -35.734375 24.503906 -34.816406 22.765625 -32.984375 C 21.023438 -31.148438 20.15625 -28.585938 20.15625 -25.296875 C 20.15625 -22.054688 21.023438 -19.488281 22.765625 -17.59375 C 24.503906 -15.707031 26.695312 -14.765625 29.34375 -14.765625 C 31.914062 -14.765625 34.085938 -15.691406 35.859375 -17.546875 C 37.628906 -19.410156 38.515625 -21.992188 38.515625 -25.296875 Z M 38.515625 -25.296875 "/></g></g></g><g fill="#ffffff" fill-opacity="1"><g transform="translate(443.121021, 481.661451)"><g><path d="M 22.6875 -41.578125 C 24.664062 -44.460938 27.0625 -46.742188 29.875 -48.421875 C 32.695312 -50.097656 35.726562 -50.9375 38.96875 -50.9375 L 38.96875 -32.125 L 34.015625 -32.125 C 30.179688 -32.125 27.332031 -31.375 25.46875 -29.875 C 23.613281 -28.375 22.6875 -25.765625 22.6875 -22.046875 L 22.6875 0 L 5.046875 0 L 5.046875 -50.484375 L 22.6875 -50.484375 Z M 22.6875 -41.578125 "/></g></g></g><g fill="#ffffff" fill-opacity="1"><g transform="translate(483.350985, 481.661451)"><g><path d="M 53.28125 -25.828125 C 53.28125 -24.453125 53.191406 -23.070312 53.015625 -21.6875 L 19.625 -21.6875 C 19.800781 -18.925781 20.5625 -16.867188 21.90625 -15.515625 C 23.257812 -14.171875 24.988281 -13.5 27.09375 -13.5 C 30.03125 -13.5 32.128906 -14.816406 33.390625 -17.453125 L 52.203125 -17.453125 C 51.421875 -13.972656 49.90625 -10.867188 47.65625 -8.140625 C 45.40625 -5.410156 42.566406 -3.265625 39.140625 -1.703125 C 35.722656 -0.148438 31.945312 0.625 27.8125 0.625 C 22.832031 0.625 18.40625 -0.421875 14.53125 -2.515625 C 10.664062 -4.617188 7.632812 -7.617188 5.4375 -11.515625 C 3.25 -15.421875 2.15625 -20.015625 2.15625 -25.296875 C 2.15625 -30.566406 3.234375 -35.132812 5.390625 -39 C 7.554688 -42.875 10.570312 -45.863281 14.4375 -47.96875 C 18.3125 -50.070312 22.769531 -51.125 27.8125 -51.125 C 32.789062 -51.125 37.195312 -50.101562 41.03125 -48.0625 C 44.875 -46.019531 47.875 -43.09375 50.03125 -39.28125 C 52.195312 -35.46875 53.28125 -30.984375 53.28125 -25.828125 Z M 35.28125 -30.234375 C 35.28125 -32.398438 34.554688 -34.097656 33.109375 -35.328125 C 31.671875 -36.554688 29.875 -37.171875 27.71875 -37.171875 C 25.5625 -37.171875 23.789062 -36.582031 22.40625 -35.40625 C 21.03125 -34.238281 20.128906 -32.515625 19.703125 -30.234375 Z M 35.28125 -30.234375 "/></g></g></g><g fill="#ffffff" fill-opacity="1"><g transform="translate(538.790924, 481.661451)"><g><path d="M 38.0625 -50.9375 C 43.882812 -50.9375 48.503906 -49 51.921875 -45.125 C 55.347656 -41.257812 57.0625 -36.03125 57.0625 -29.4375 L 57.0625 0 L 39.421875 0 L 39.421875 -27.09375 C 39.421875 -29.96875 38.671875 -32.226562 37.171875 -33.875 C 35.671875 -35.53125 33.660156 -36.359375 31.140625 -36.359375 C 28.503906 -36.359375 26.4375 -35.53125 24.9375 -33.875 C 23.4375 -32.226562 22.6875 -29.96875 22.6875 -27.09375 L 22.6875 0 L 5.046875 0 L 5.046875 -50.484375 L 22.6875 -50.484375 L 22.6875 -43.296875 C 24.238281 -45.566406 26.332031 -47.40625 28.96875 -48.8125 C 31.613281 -50.226562 34.644531 -50.9375 38.0625 -50.9375 Z M 38.0625 -50.9375 "/></g></g></g><g fill="#ffffff" fill-opacity="1"><g transform="translate(600.530834, 481.661451)"><g><path d="M 2.15625 -25.296875 C 2.15625 -30.515625 3.234375 -35.070312 5.390625 -38.96875 C 7.554688 -42.863281 10.570312 -45.863281 14.4375 -47.96875 C 18.3125 -50.070312 22.738281 -51.125 27.71875 -51.125 C 34.132812 -51.125 39.53125 -49.367188 43.90625 -45.859375 C 48.289062 -42.347656 51.113281 -37.441406 52.375 -31.140625 L 33.65625 -31.140625 C 32.582031 -34.441406 30.484375 -36.09375 27.359375 -36.09375 C 25.140625 -36.09375 23.382812 -35.175781 22.09375 -33.34375 C 20.800781 -31.507812 20.15625 -28.828125 20.15625 -25.296875 C 20.15625 -21.753906 20.800781 -19.050781 22.09375 -17.1875 C 23.382812 -15.332031 25.140625 -14.40625 27.359375 -14.40625 C 30.535156 -14.40625 32.632812 -16.050781 33.65625 -19.34375 L 52.375 -19.34375 C 51.113281 -13.101562 48.289062 -8.210938 43.90625 -4.671875 C 39.53125 -1.140625 34.132812 0.625 27.71875 0.625 C 22.738281 0.625 18.3125 -0.421875 14.4375 -2.515625 C 10.570312 -4.617188 7.554688 -7.617188 5.390625 -11.515625 C 3.234375 -15.421875 2.15625 -20.015625 2.15625 -25.296875 Z M 2.15625 -25.296875 "/></g></g></g><g fill="#ffffff" fill-opacity="1"><g transform="translate(655.160806, 481.661451)"><g><path d="M 59.40625 -50.484375 L 27.359375 24.03125 L 8.1875 24.03125 L 20.25 -2.15625 L -0.453125 -50.484375 L 19.171875 -50.484375 L 29.796875 -21.875 L 40.046875 -50.484375 Z M 59.40625 -50.484375 "/></g></g></g><g fill="#ffffff" fill-opacity="1"><g transform="translate(714.110739, 481.661451)"><g><path d="M 13.59375 0.71875 C 10.46875 0.71875 7.957031 -0.132812 6.0625 -1.84375 C 4.175781 -3.550781 3.234375 -5.726562 3.234375 -8.375 C 3.234375 -11.007812 4.175781 -13.195312 6.0625 -14.9375 C 7.957031 -16.675781 10.46875 -17.546875 13.59375 -17.546875 C 16.65625 -17.546875 19.128906 -16.675781 21.015625 -14.9375 C 22.898438 -13.195312 23.84375 -11.007812 23.84375 -8.375 C 23.84375 -5.789062 22.898438 -3.628906 21.015625 -1.890625 C 19.128906 -0.148438 16.65625 0.71875 13.59375 0.71875 Z M 13.59375 0.71875 "/></g></g></g><g fill="#ffffff" fill-opacity="1"><g transform="translate(52.071388, 607.661445)"><g><path d="M 48.0625 -63.453125 L 48.0625 -49.40625 L 22.6875 -49.40625 L 22.6875 -38.25 L 41.40625 -38.25 L 41.40625 -24.84375 L 22.6875 -24.84375 L 22.6875 0 L 5.046875 0 L 5.046875 -63.453125 Z M 48.0625 -63.453125 "/></g></g></g><g fill="#ffffff" fill-opacity="1"><g transform="translate(102.561333, 607.661445)"><g><path d="M 28.53125 0.625 C 23.488281 0.625 18.972656 -0.421875 14.984375 -2.515625 C 10.992188 -4.617188 7.859375 -7.617188 5.578125 -11.515625 C 3.296875 -15.421875 2.15625 -20.015625 2.15625 -25.296875 C 2.15625 -30.515625 3.3125 -35.070312 5.625 -38.96875 C 7.9375 -42.863281 11.085938 -45.863281 15.078125 -47.96875 C 19.066406 -50.070312 23.582031 -51.125 28.625 -51.125 C 33.664062 -51.125 38.179688 -50.070312 42.171875 -47.96875 C 46.160156 -45.863281 49.304688 -42.863281 51.609375 -38.96875 C 53.921875 -35.070312 55.078125 -30.515625 55.078125 -25.296875 C 55.078125 -20.066406 53.921875 -15.488281 51.609375 -11.5625 C 49.304688 -7.632812 46.144531 -4.617188 42.125 -2.515625 C 38.101562 -0.421875 33.570312 0.625 28.53125 0.625 Z M 28.53125 -14.671875 C 30.988281 -14.671875 33.039062 -15.582031 34.6875 -17.40625 C 36.34375 -19.238281 37.171875 -21.867188 37.171875 -25.296875 C 37.171875 -28.710938 36.34375 -31.316406 34.6875 -33.109375 C 33.039062 -34.910156 31.019531 -35.8125 28.625 -35.8125 C 26.21875 -35.8125 24.203125 -34.910156 22.578125 -33.109375 C 20.960938 -31.316406 20.15625 -28.710938 20.15625 -25.296875 C 20.15625 -21.804688 20.9375 -19.160156 22.5 -17.359375 C 24.0625 -15.566406 26.070312 -14.671875 28.53125 -14.671875 Z M 28.53125 -14.671875 "/></g></g></g><g fill="#ffffff" fill-opacity="1"><g transform="translate(159.801279, 607.661445)"><g><path d="M 2.15625 -25.296875 C 2.15625 -30.515625 3.234375 -35.070312 5.390625 -38.96875 C 7.554688 -42.863281 10.570312 -45.863281 14.4375 -47.96875 C 18.3125 -50.070312 22.738281 -51.125 27.71875 -51.125 C 34.132812 -51.125 39.53125 -49.367188 43.90625 -45.859375 C 48.289062 -42.347656 51.113281 -37.441406 52.375 -31.140625 L 33.65625 -31.140625 C 32.582031 -34.441406 30.484375 -36.09375 27.359375 -36.09375 C 25.140625 -36.09375 23.382812 -35.175781 22.09375 -33.34375 C 20.800781 -31.507812 20.15625 -28.828125 20.15625 -25.296875 C 20.15625 -21.753906 20.800781 -19.050781 22.09375 -17.1875 C 23.382812 -15.332031 25.140625 -14.40625 27.359375 -14.40625 C 30.535156 -14.40625 32.632812 -16.050781 33.65625 -19.34375 L 52.375 -19.34375 C 51.113281 -13.101562 48.289062 -8.210938 43.90625 -4.671875 C 39.53125 -1.140625 34.132812 0.625 27.71875 0.625 C 22.738281 0.625 18.3125 -0.421875 14.4375 -2.515625 C 10.570312 -4.617188 7.554688 -7.617188 5.390625 -11.515625 C 3.234375 -15.421875 2.15625 -20.015625 2.15625 -25.296875 Z M 2.15625 -25.296875 "/></g></g></g><g fill="#ffffff" fill-opacity="1"><g transform="translate(214.431227, 607.661445)"><g><path d="M 56.703125 -50.484375 L 56.703125 0 L 38.96875 0 L 38.96875 -7.203125 C 37.46875 -4.921875 35.394531 -3.070312 32.75 -1.65625 C 30.113281 -0.25 27.085938 0.453125 23.671875 0.453125 C 17.785156 0.453125 13.148438 -1.476562 9.765625 -5.34375 C 6.378906 -9.21875 4.6875 -14.488281 4.6875 -21.15625 L 4.6875 -50.484375 L 22.234375 -50.484375 L 22.234375 -23.40625 C 22.234375 -20.519531 22.992188 -18.25 24.515625 -16.59375 C 26.046875 -14.945312 28.070312 -14.125 30.59375 -14.125 C 33.175781 -14.125 35.21875 -14.945312 36.71875 -16.59375 C 38.21875 -18.25 38.96875 -20.519531 38.96875 -23.40625 L 38.96875 -50.484375 Z M 56.703125 -50.484375 "/></g></g></g><g fill="#ffffff" fill-opacity="1"><g transform="translate(276.171161, 607.661445)"><g><path d="M 26.546875 0.625 C 21.984375 0.625 17.914062 -0.132812 14.34375 -1.65625 C 10.78125 -3.1875 7.960938 -5.285156 5.890625 -7.953125 C 3.828125 -10.628906 2.675781 -13.648438 2.4375 -17.015625 L 19.53125 -17.015625 C 19.769531 -15.390625 20.519531 -14.125 21.78125 -13.21875 C 23.039062 -12.320312 24.597656 -11.875 26.453125 -11.875 C 27.898438 -11.875 29.039062 -12.175781 29.875 -12.78125 C 30.71875 -13.382812 31.140625 -14.164062 31.140625 -15.125 C 31.140625 -16.382812 30.445312 -17.3125 29.0625 -17.90625 C 27.6875 -18.507812 25.410156 -19.171875 22.234375 -19.890625 C 18.628906 -20.609375 15.625 -21.414062 13.21875 -22.3125 C 10.820312 -23.21875 8.738281 -24.691406 6.96875 -26.734375 C 5.195312 -28.773438 4.3125 -31.535156 4.3125 -35.015625 C 4.3125 -38.015625 5.125 -40.726562 6.75 -43.15625 C 8.375 -45.582031 10.757812 -47.515625 13.90625 -48.953125 C 17.050781 -50.398438 20.847656 -51.125 25.296875 -51.125 C 31.890625 -51.125 37.078125 -49.503906 40.859375 -46.265625 C 44.640625 -43.023438 46.832031 -38.765625 47.4375 -33.484375 L 31.5 -33.484375 C 31.195312 -35.097656 30.488281 -36.335938 29.375 -37.203125 C 28.269531 -38.078125 26.789062 -38.515625 24.9375 -38.515625 C 23.488281 -38.515625 22.390625 -38.242188 21.640625 -37.703125 C 20.890625 -37.171875 20.515625 -36.421875 20.515625 -35.453125 C 20.515625 -34.253906 21.203125 -33.335938 22.578125 -32.703125 C 23.960938 -32.078125 26.1875 -31.4375 29.25 -30.78125 C 32.90625 -30 35.945312 -29.128906 38.375 -28.171875 C 40.8125 -27.210938 42.941406 -25.664062 44.765625 -23.53125 C 46.597656 -21.40625 47.515625 -18.507812 47.515625 -14.84375 C 47.515625 -11.90625 46.660156 -9.265625 44.953125 -6.921875 C 43.242188 -4.585938 40.8125 -2.742188 37.65625 -1.390625 C 34.507812 -0.046875 30.804688 0.625 26.546875 0.625 Z M 26.546875 0.625 "/></g></g></g><g fill="#ffffff" fill-opacity="1"><g transform="translate(327.291116, 607.661445)"><g><path d="M 13.59375 0.71875 C 10.46875 0.71875 7.957031 -0.132812 6.0625 -1.84375 C 4.175781 -3.550781 3.234375 -5.726562 3.234375 -8.375 C 3.234375 -11.007812 4.175781 -13.195312 6.0625 -14.9375 C 7.957031 -16.675781 10.46875 -17.546875 13.59375 -17.546875 C 16.65625 -17.546875 19.128906 -16.675781 21.015625 -14.9375 C 22.898438 -13.195312 23.84375 -11.007812 23.84375 -8.375 C 23.84375 -5.789062 22.898438 -3.628906 21.015625 -1.890625 C 19.128906 -0.148438 16.65625 0.71875 13.59375 0.71875 Z M 13.59375 0.71875 "/></g></g></g><g clip-path="url(#id1)"><g clip-path="url(#id2)"><path fill="url(#id3)" d="M 798.9375 370.425781 L 798.9375 439.90625 L 809.089844 439.90625 L 809.089844 370.425781 Z M 798.9375 370.425781 " fill-rule="nonzero"/></g></g><g clip-path="url(#id4)"><g clip-path="url(#id5)"><path fill="url(#id6)" d="M 814.132812 353.730469 L 814.132812 456.601562 L 834.4375 456.601562 L 834.4375 353.730469 Z M 814.132812 353.730469 " fill-rule="nonzero"/></g></g><g clip-path="url(#id7)"><g clip-path="url(#id8)"><path fill="url(#id9)" d="M 829.394531 335.617188 L 829.394531 474.648438 L 869.9375 474.648438 L 869.9375 335.617188 Z M 829.394531 335.617188 " fill-rule="nonzero"/></g></g><g clip-path="url(#id10)"><g clip-path="url(#id11)"><path fill="url(#id12)" d="M 849.632812 323.964844 L 849.632812 486.367188 L 1011.9375 486.367188 L 1011.9375 323.964844 Z M 849.632812 323.964844 " fill-rule="nonzero"/></g></g><g fill="#ffffff" fill-opacity="1"><g transform="translate(1037.647346, 419.223012)"><g><path d="M 33.871094 -55.65625 L 33.871094 -34.746094 C 31.089844 -38.640625 26.714844 -41.027344 20.195312 -41.027344 C 6.996094 -41.027344 2.066406 -30.847656 2.066406 -19.957031 C 2.066406 -8.667969 6.996094 1.273438 20.195312 1.273438 C 26.714844 1.273438 31.089844 -1.035156 33.871094 -4.929688 L 33.871094 0 L 49.453125 0 L 49.453125 -55.65625 Z M 25.761719 -10.8125 C 19.640625 -10.8125 17.652344 -13.277344 17.652344 -19.878906 C 17.652344 -26.476562 19.640625 -28.941406 25.761719 -28.941406 C 32.28125 -28.941406 33.871094 -25.917969 33.871094 -19.878906 C 33.871094 -13.835938 32.28125 -10.8125 25.761719 -10.8125 Z M 25.761719 -10.8125 "/></g></g></g><g fill="#ffffff" fill-opacity="1"><g transform="translate(1090.505612, 419.223012)"><g><path d="M 25.125 -8.984375 C 20.75 -8.984375 18.207031 -10.894531 17.414062 -15.980469 L 46.671875 -15.980469 C 46.832031 -16.777344 46.910156 -18.046875 46.910156 -19.398438 C 46.910156 -30.371094 42.21875 -41.027344 24.808594 -41.027344 C 8.984375 -41.027344 2.226562 -31.40625 2.226562 -19.957031 C 2.226562 -9.300781 7.949219 1.273438 24.808594 1.273438 C 39.4375 1.273438 45.242188 -4.691406 46.75 -12.003906 L 31.484375 -12.003906 C 30.371094 -10.175781 28.144531 -8.984375 25.125 -8.984375 Z M 25.046875 -31.007812 C 29.738281 -31.007812 31.722656 -28.703125 32.199219 -24.566406 L 17.492188 -24.566406 C 18.367188 -29.339844 20.671875 -31.007812 25.046875 -31.007812 Z M 25.046875 -31.007812 "/></g></g></g><g fill="#ffffff" fill-opacity="1"><g transform="translate(1139.628039, 419.223012)"><g><path d="M 32.679688 -39.753906 L 24.089844 -11.6875 L 15.503906 -39.753906 L -0.316406 -39.753906 L 12.246094 0 L 34.824219 0 L 47.386719 -39.753906 Z M 32.679688 -39.753906 "/></g></g></g><g fill="#ffffff" fill-opacity="1"><g transform="translate(1186.683824, 419.223012)"><g><path d="M 32.679688 -39.753906 L 32.679688 -20.433594 C 32.679688 -14.230469 29.894531 -11.289062 25.203125 -11.289062 C 20.511719 -11.289062 18.921875 -14.390625 18.921875 -18.683594 L 18.921875 -39.753906 L 3.339844 -39.753906 L 3.339844 -15.824219 C 3.339844 -5.40625 8.269531 1.273438 18.605469 1.273438 C 25.441406 1.273438 30.054688 -1.75 32.679688 -6.757812 L 32.679688 0 L 48.261719 0 L 48.261719 -39.753906 Z M 32.679688 -39.753906 "/></g></g></g><g fill="#ffffff" fill-opacity="1"><g transform="translate(1238.50877, 419.223012)"><g><path d="M 32.679688 -41.027344 C 26.160156 -41.027344 21.785156 -38.722656 19.003906 -34.824219 L 19.003906 -39.753906 L 3.417969 -39.753906 L 3.417969 15.902344 L 19.003906 15.902344 L 19.003906 -5.007812 C 21.785156 -1.113281 26.160156 1.273438 32.679688 1.273438 C 45.875 1.273438 50.804688 -8.90625 50.804688 -19.796875 C 50.804688 -31.089844 45.875 -41.027344 32.679688 -41.027344 Z M 27.113281 -10.8125 C 20.59375 -10.8125 19.003906 -13.835938 19.003906 -19.878906 C 19.003906 -25.917969 20.59375 -28.941406 27.113281 -28.941406 C 33.234375 -28.941406 35.222656 -26.476562 35.222656 -19.878906 C 35.222656 -13.277344 33.234375 -10.8125 27.113281 -10.8125 Z M 27.113281 -10.8125 "/></g></g></g><g fill="#ffffff" fill-opacity="1"><g transform="translate(1037.647346, 452.339831)"><g><path d="M 9.3125 -17.71875 L 9.3125 0 L 6.921875 0 L 6.921875 -17.71875 L 0.625 -17.71875 L 0.625 -19.8125 L 15.609375 -19.8125 L 15.609375 -17.71875 Z M 9.3125 -17.71875 "/></g></g></g><g fill="#ffffff" fill-opacity="1"><g transform="translate(1053.883697, 452.339831)"><g><path d="M 7.921875 0.34375 C 6.921875 0.34375 6.015625 0.164062 5.203125 -0.1875 C 4.398438 -0.550781 3.707031 -1.066406 3.125 -1.734375 C 2.550781 -2.410156 2.109375 -3.21875 1.796875 -4.15625 C 1.484375 -5.09375 1.328125 -6.148438 1.328125 -7.328125 C 1.328125 -8.484375 1.484375 -9.53125 1.796875 -10.46875 C 2.109375 -11.414062 2.550781 -12.222656 3.125 -12.890625 C 3.707031 -13.566406 4.398438 -14.082031 5.203125 -14.4375 C 6.015625 -14.800781 6.921875 -14.984375 7.921875 -14.984375 C 8.898438 -14.984375 9.773438 -14.800781 10.546875 -14.4375 C 11.328125 -14.082031 11.992188 -13.585938 12.546875 -12.953125 C 13.097656 -12.328125 13.519531 -11.578125 13.8125 -10.703125 C 14.101562 -9.828125 14.25 -8.867188 14.25 -7.828125 L 14.25 -6.75 L 3.71875 -6.75 L 3.71875 -6.078125 C 3.71875 -5.453125 3.816406 -4.867188 4.015625 -4.328125 C 4.210938 -3.785156 4.492188 -3.316406 4.859375 -2.921875 C 5.234375 -2.523438 5.691406 -2.210938 6.234375 -1.984375 C 6.773438 -1.753906 7.382812 -1.640625 8.0625 -1.640625 C 8.988281 -1.640625 9.796875 -1.859375 10.484375 -2.296875 C 11.179688 -2.734375 11.71875 -3.359375 12.09375 -4.171875 L 13.71875 -3.015625 C 13.238281 -2.003906 12.5 -1.191406 11.5 -0.578125 C 10.5 0.0351562 9.304688 0.34375 7.921875 0.34375 Z M 7.921875 -13.09375 C 7.296875 -13.09375 6.726562 -12.984375 6.21875 -12.765625 C 5.707031 -12.546875 5.265625 -12.238281 4.890625 -11.84375 C 4.523438 -11.445312 4.238281 -10.976562 4.03125 -10.4375 C 3.820312 -9.894531 3.71875 -9.300781 3.71875 -8.65625 L 3.71875 -8.453125 L 11.8125 -8.453125 L 11.8125 -8.765625 C 11.8125 -10.078125 11.457031 -11.125 10.75 -11.90625 C 10.039062 -12.695312 9.097656 -13.09375 7.921875 -13.09375 Z M 7.921875 -13.09375 "/></g></g></g><g fill="#ffffff" fill-opacity="1"><g transform="translate(1069.467181, 452.339831)"><g><path d="M 7.859375 0.34375 C 6.835938 0.34375 5.921875 0.164062 5.109375 -0.1875 C 4.296875 -0.550781 3.609375 -1.0625 3.046875 -1.71875 C 2.492188 -2.382812 2.066406 -3.191406 1.765625 -4.140625 C 1.472656 -5.085938 1.328125 -6.148438 1.328125 -7.328125 C 1.328125 -8.492188 1.472656 -9.550781 1.765625 -10.5 C 2.066406 -11.445312 2.492188 -12.25 3.046875 -12.90625 C 3.609375 -13.570312 4.296875 -14.082031 5.109375 -14.4375 C 5.921875 -14.800781 6.835938 -14.984375 7.859375 -14.984375 C 9.316406 -14.984375 10.484375 -14.664062 11.359375 -14.03125 C 12.242188 -13.40625 12.90625 -12.582031 13.34375 -11.5625 L 11.4375 -10.59375 C 11.175781 -11.34375 10.742188 -11.925781 10.140625 -12.34375 C 9.535156 -12.757812 8.773438 -12.96875 7.859375 -12.96875 C 7.179688 -12.96875 6.585938 -12.859375 6.078125 -12.640625 C 5.566406 -12.429688 5.140625 -12.128906 4.796875 -11.734375 C 4.453125 -11.347656 4.195312 -10.882812 4.03125 -10.34375 C 3.863281 -9.8125 3.78125 -9.222656 3.78125 -8.578125 L 3.78125 -6.078125 C 3.78125 -4.785156 4.125 -3.726562 4.8125 -2.90625 C 5.5 -2.082031 6.515625 -1.671875 7.859375 -1.671875 C 9.703125 -1.671875 11.03125 -2.523438 11.84375 -4.234375 L 13.484375 -3.125 C 13.015625 -2.0625 12.3125 -1.21875 11.375 -0.59375 C 10.4375 0.03125 9.265625 0.34375 7.859375 0.34375 Z M 7.859375 0.34375 "/></g></g></g><g fill="#ffffff" fill-opacity="1"><g transform="translate(1083.744961, 452.339831)"><g><path d="M 2.40625 -21.015625 L 4.6875 -21.015625 L 4.6875 -12.265625 L 4.796875 -12.265625 C 5.160156 -13.097656 5.664062 -13.757812 6.3125 -14.25 C 6.96875 -14.738281 7.84375 -14.984375 8.9375 -14.984375 C 10.457031 -14.984375 11.65625 -14.492188 12.53125 -13.515625 C 13.414062 -12.546875 13.859375 -11.171875 13.859375 -9.390625 L 13.859375 0 L 11.578125 0 L 11.578125 -9 C 11.578125 -11.632812 10.472656 -12.953125 8.265625 -12.953125 C 7.804688 -12.953125 7.363281 -12.894531 6.9375 -12.78125 C 6.507812 -12.664062 6.125 -12.492188 5.78125 -12.265625 C 5.445312 -12.035156 5.179688 -11.742188 4.984375 -11.390625 C 4.785156 -11.046875 4.6875 -10.632812 4.6875 -10.15625 L 4.6875 0 L 2.40625 0 Z M 2.40625 -21.015625 "/></g></g></g><g fill="#ffffff" fill-opacity="1"><g transform="translate(1099.867767, 452.339831)"><g><path d="M 2.40625 0 L 2.40625 -14.65625 L 4.6875 -14.65625 L 4.6875 -12.265625 L 4.796875 -12.265625 C 5.160156 -13.097656 5.664062 -13.757812 6.3125 -14.25 C 6.96875 -14.738281 7.84375 -14.984375 8.9375 -14.984375 C 10.457031 -14.984375 11.65625 -14.492188 12.53125 -13.515625 C 13.414062 -12.546875 13.859375 -11.171875 13.859375 -9.390625 L 13.859375 0 L 11.578125 0 L 11.578125 -9 C 11.578125 -11.632812 10.472656 -12.953125 8.265625 -12.953125 C 7.804688 -12.953125 7.363281 -12.894531 6.9375 -12.78125 C 6.507812 -12.664062 6.125 -12.492188 5.78125 -12.265625 C 5.445312 -12.035156 5.179688 -11.742188 4.984375 -11.390625 C 4.785156 -11.046875 4.6875 -10.632812 4.6875 -10.15625 L 4.6875 0 Z M 2.40625 0 "/></g></g></g><g fill="#ffffff" fill-opacity="1"><g transform="translate(1115.990573, 452.339831)"><g><path d="M 7.953125 0.34375 C 6.960938 0.34375 6.0625 0.164062 5.25 -0.1875 C 4.4375 -0.550781 3.738281 -1.066406 3.15625 -1.734375 C 2.582031 -2.410156 2.132812 -3.21875 1.8125 -4.15625 C 1.488281 -5.09375 1.328125 -6.148438 1.328125 -7.328125 C 1.328125 -8.484375 1.488281 -9.53125 1.8125 -10.46875 C 2.132812 -11.414062 2.582031 -12.222656 3.15625 -12.890625 C 3.738281 -13.566406 4.4375 -14.082031 5.25 -14.4375 C 6.0625 -14.800781 6.960938 -14.984375 7.953125 -14.984375 C 8.929688 -14.984375 9.820312 -14.800781 10.625 -14.4375 C 11.4375 -14.082031 12.132812 -13.566406 12.71875 -12.890625 C 13.300781 -12.222656 13.753906 -11.414062 14.078125 -10.46875 C 14.398438 -9.53125 14.5625 -8.484375 14.5625 -7.328125 C 14.5625 -6.148438 14.398438 -5.09375 14.078125 -4.15625 C 13.753906 -3.21875 13.300781 -2.410156 12.71875 -1.734375 C 12.132812 -1.066406 11.4375 -0.550781 10.625 -0.1875 C 9.820312 0.164062 8.929688 0.34375 7.953125 0.34375 Z M 7.953125 -1.671875 C 9.179688 -1.671875 10.179688 -2.050781 10.953125 -2.8125 C 11.734375 -3.570312 12.125 -4.726562 12.125 -6.28125 L 12.125 -8.375 C 12.125 -9.925781 11.734375 -11.078125 10.953125 -11.828125 C 10.179688 -12.585938 9.179688 -12.96875 7.953125 -12.96875 C 6.722656 -12.96875 5.71875 -12.585938 4.9375 -11.828125 C 4.164062 -11.078125 3.78125 -9.925781 3.78125 -8.375 L 3.78125 -6.28125 C 3.78125 -4.726562 4.164062 -3.570312 4.9375 -2.8125 C 5.71875 -2.050781 6.722656 -1.671875 7.953125 -1.671875 Z M 7.953125 -1.671875 "/></g></g></g><g fill="#ffffff" fill-opacity="1"><g transform="translate(1131.886322, 452.339831)"><g><path d="M 4.828125 0 C 4.035156 0 3.429688 -0.21875 3.015625 -0.65625 C 2.609375 -1.101562 2.40625 -1.671875 2.40625 -2.359375 L 2.40625 -21.015625 L 4.6875 -21.015625 L 4.6875 -1.984375 L 6.84375 -1.984375 L 6.84375 0 Z M 4.828125 0 "/></g></g></g><g fill="#ffffff" fill-opacity="1"><g transform="translate(1139.607122, 452.339831)"><g><path d="M 7.953125 0.34375 C 6.960938 0.34375 6.0625 0.164062 5.25 -0.1875 C 4.4375 -0.550781 3.738281 -1.066406 3.15625 -1.734375 C 2.582031 -2.410156 2.132812 -3.21875 1.8125 -4.15625 C 1.488281 -5.09375 1.328125 -6.148438 1.328125 -7.328125 C 1.328125 -8.484375 1.488281 -9.53125 1.8125 -10.46875 C 2.132812 -11.414062 2.582031 -12.222656 3.15625 -12.890625 C 3.738281 -13.566406 4.4375 -14.082031 5.25 -14.4375 C 6.0625 -14.800781 6.960938 -14.984375 7.953125 -14.984375 C 8.929688 -14.984375 9.820312 -14.800781 10.625 -14.4375 C 11.4375 -14.082031 12.132812 -13.566406 12.71875 -12.890625 C 13.300781 -12.222656 13.753906 -11.414062 14.078125 -10.46875 C 14.398438 -9.53125 14.5625 -8.484375 14.5625 -7.328125 C 14.5625 -6.148438 14.398438 -5.09375 14.078125 -4.15625 C 13.753906 -3.21875 13.300781 -2.410156 12.71875 -1.734375 C 12.132812 -1.066406 11.4375 -0.550781 10.625 -0.1875 C 9.820312 0.164062 8.929688 0.34375 7.953125 0.34375 Z M 7.953125 -1.671875 C 9.179688 -1.671875 10.179688 -2.050781 10.953125 -2.8125 C 11.734375 -3.570312 12.125 -4.726562 12.125 -6.28125 L 12.125 -8.375 C 12.125 -9.925781 11.734375 -11.078125 10.953125 -11.828125 C 10.179688 -12.585938 9.179688 -12.96875 7.953125 -12.96875 C 6.722656 -12.96875 5.71875 -12.585938 4.9375 -11.828125 C 4.164062 -11.078125 3.78125 -9.925781 3.78125 -8.375 L 3.78125 -6.28125 C 3.78125 -4.726562 4.164062 -3.570312 4.9375 -2.8125 C 5.71875 -2.050781 6.722656 -1.671875 7.953125 -1.671875 Z M 7.953125 -1.671875 "/></g></g></g><g fill="#ffffff" fill-opacity="1"><g transform="translate(1155.502871, 452.339831)"><g><path d="M 14.765625 1.625 C 14.765625 3.132812 14.171875 4.242188 12.984375 4.953125 C 11.804688 5.660156 10.035156 6.015625 7.671875 6.015625 C 5.378906 6.015625 3.726562 5.703125 2.71875 5.078125 C 1.71875 4.453125 1.21875 3.5625 1.21875 2.40625 C 1.21875 1.613281 1.425781 0.992188 1.84375 0.546875 C 2.257812 0.109375 2.828125 -0.210938 3.546875 -0.421875 L 3.546875 -0.734375 C 2.679688 -1.148438 2.25 -1.832031 2.25 -2.78125 C 2.25 -3.519531 2.484375 -4.082031 2.953125 -4.46875 C 3.421875 -4.851562 4.023438 -5.144531 4.765625 -5.34375 L 4.765625 -5.453125 C 3.898438 -5.867188 3.222656 -6.460938 2.734375 -7.234375 C 2.253906 -8.015625 2.015625 -8.914062 2.015625 -9.9375 C 2.015625 -10.675781 2.144531 -11.359375 2.40625 -11.984375 C 2.675781 -12.609375 3.050781 -13.140625 3.53125 -13.578125 C 4.019531 -14.023438 4.597656 -14.367188 5.265625 -14.609375 C 5.941406 -14.859375 6.695312 -14.984375 7.53125 -14.984375 C 8.5625 -14.984375 9.488281 -14.796875 10.3125 -14.421875 L 10.3125 -14.671875 C 10.3125 -15.242188 10.441406 -15.710938 10.703125 -16.078125 C 10.960938 -16.453125 11.398438 -16.640625 12.015625 -16.640625 L 14.203125 -16.640625 L 14.203125 -14.65625 L 11.40625 -14.65625 L 11.40625 -13.71875 C 11.9375 -13.257812 12.347656 -12.710938 12.640625 -12.078125 C 12.941406 -11.441406 13.09375 -10.726562 13.09375 -9.9375 C 13.09375 -9.195312 12.957031 -8.515625 12.6875 -7.890625 C 12.425781 -7.265625 12.050781 -6.726562 11.5625 -6.28125 C 11.082031 -5.84375 10.5 -5.5 9.8125 -5.25 C 9.132812 -5.007812 8.378906 -4.890625 7.546875 -4.890625 C 7.078125 -4.890625 6.601562 -4.9375 6.125 -5.03125 C 5.632812 -4.894531 5.191406 -4.695312 4.796875 -4.4375 C 4.398438 -4.1875 4.203125 -3.832031 4.203125 -3.375 C 4.203125 -2.9375 4.410156 -2.640625 4.828125 -2.484375 C 5.242188 -2.335938 5.78125 -2.265625 6.4375 -2.265625 L 9.5625 -2.265625 C 11.382812 -2.265625 12.707031 -1.921875 13.53125 -1.234375 C 14.351562 -0.546875 14.765625 0.40625 14.765625 1.625 Z M 12.640625 1.78125 C 12.640625 1.195312 12.414062 0.726562 11.96875 0.375 C 11.519531 0.03125 10.726562 -0.140625 9.59375 -0.140625 L 4.71875 -0.140625 C 3.800781 0.273438 3.34375 0.9375 3.34375 1.84375 C 3.34375 2.488281 3.582031 3.035156 4.0625 3.484375 C 4.550781 3.941406 5.375 4.171875 6.53125 4.171875 L 8.625 4.171875 C 9.894531 4.171875 10.878906 3.972656 11.578125 3.578125 C 12.285156 3.179688 12.640625 2.582031 12.640625 1.78125 Z M 7.546875 -6.703125 C 8.515625 -6.703125 9.28125 -6.929688 9.84375 -7.390625 C 10.414062 -7.859375 10.703125 -8.578125 10.703125 -9.546875 L 10.703125 -10.328125 C 10.703125 -11.296875 10.414062 -12.007812 9.84375 -12.46875 C 9.28125 -12.9375 8.515625 -13.171875 7.546875 -13.171875 C 6.585938 -13.171875 5.820312 -12.9375 5.25 -12.46875 C 4.6875 -12.007812 4.40625 -11.296875 4.40625 -10.328125 L 4.40625 -9.546875 C 4.40625 -8.578125 4.6875 -7.859375 5.25 -7.390625 C 5.820312 -6.929688 6.585938 -6.703125 7.546875 -6.703125 Z M 7.546875 -6.703125 "/></g></g></g><g fill="#ffffff" fill-opacity="1"><g transform="translate(1170.490292, 452.339831)"><g><path d="M 11.4375 -14.65625 L 13.6875 -14.65625 L 7.125 3.40625 C 6.957031 3.84375 6.785156 4.207031 6.609375 4.5 C 6.441406 4.789062 6.234375 5.019531 5.984375 5.1875 C 5.742188 5.363281 5.4375 5.488281 5.0625 5.5625 C 4.695312 5.632812 4.25 5.671875 3.71875 5.671875 L 2.5625 5.671875 L 2.5625 3.6875 L 4.859375 3.6875 L 5.96875 0.5625 L 0.484375 -14.65625 L 2.75 -14.65625 L 6.28125 -4.6875 L 6.953125 -2.296875 L 7.09375 -2.296875 L 7.890625 -4.6875 Z M 11.4375 -14.65625 "/></g></g></g><g fill="#ffffff" fill-opacity="1"><g transform="translate(1184.654528, 452.339831)"><g/></g></g><g fill="#ffffff" fill-opacity="1"><g transform="translate(1191.353456, 452.339831)"><g><path d="M 9.625 0.34375 C 7.101562 0.34375 5.140625 -0.507812 3.734375 -2.21875 C 2.335938 -3.9375 1.640625 -6.460938 1.640625 -9.796875 C 1.640625 -13.128906 2.335938 -15.6875 3.734375 -17.46875 C 5.140625 -19.257812 7.101562 -20.15625 9.625 -20.15625 C 11.289062 -20.15625 12.6875 -19.773438 13.8125 -19.015625 C 14.9375 -18.265625 15.8125 -17.195312 16.4375 -15.8125 L 14.5 -14.65625 C 14.101562 -15.675781 13.5 -16.492188 12.6875 -17.109375 C 11.875 -17.722656 10.851562 -18.03125 9.625 -18.03125 C 8.769531 -18.03125 8.003906 -17.867188 7.328125 -17.546875 C 6.660156 -17.222656 6.09375 -16.765625 5.625 -16.171875 C 5.164062 -15.578125 4.8125 -14.863281 4.5625 -14.03125 C 4.320312 -13.207031 4.203125 -12.285156 4.203125 -11.265625 L 4.203125 -8.3125 C 4.203125 -6.269531 4.675781 -4.671875 5.625 -3.515625 C 6.570312 -2.359375 7.90625 -1.78125 9.625 -1.78125 C 10.894531 -1.78125 11.953125 -2.109375 12.796875 -2.765625 C 13.648438 -3.421875 14.273438 -4.285156 14.671875 -5.359375 L 16.578125 -4.171875 C 15.953125 -2.773438 15.050781 -1.671875 13.875 -0.859375 C 12.707031 -0.0546875 11.289062 0.34375 9.625 0.34375 Z M 9.625 0.34375 "/></g></g></g><g fill="#ffffff" fill-opacity="1"><g transform="translate(1208.980684, 452.339831)"><g><path d="M 7.953125 0.34375 C 6.960938 0.34375 6.0625 0.164062 5.25 -0.1875 C 4.4375 -0.550781 3.738281 -1.066406 3.15625 -1.734375 C 2.582031 -2.410156 2.132812 -3.21875 1.8125 -4.15625 C 1.488281 -5.09375 1.328125 -6.148438 1.328125 -7.328125 C 1.328125 -8.484375 1.488281 -9.53125 1.8125 -10.46875 C 2.132812 -11.414062 2.582031 -12.222656 3.15625 -12.890625 C 3.738281 -13.566406 4.4375 -14.082031 5.25 -14.4375 C 6.0625 -14.800781 6.960938 -14.984375 7.953125 -14.984375 C 8.929688 -14.984375 9.820312 -14.800781 10.625 -14.4375 C 11.4375 -14.082031 12.132812 -13.566406 12.71875 -12.890625 C 13.300781 -12.222656 13.753906 -11.414062 14.078125 -10.46875 C 14.398438 -9.53125 14.5625 -8.484375 14.5625 -7.328125 C 14.5625 -6.148438 14.398438 -5.09375 14.078125 -4.15625 C 13.753906 -3.21875 13.300781 -2.410156 12.71875 -1.734375 C 12.132812 -1.066406 11.4375 -0.550781 10.625 -0.1875 C 9.820312 0.164062 8.929688 0.34375 7.953125 0.34375 Z M 7.953125 -1.671875 C 9.179688 -1.671875 10.179688 -2.050781 10.953125 -2.8125 C 11.734375 -3.570312 12.125 -4.726562 12.125 -6.28125 L 12.125 -8.375 C 12.125 -9.925781 11.734375 -11.078125 10.953125 -11.828125 C 10.179688 -12.585938 9.179688 -12.96875 7.953125 -12.96875 C 6.722656 -12.96875 5.71875 -12.585938 4.9375 -11.828125 C 4.164062 -11.078125 3.78125 -9.925781 3.78125 -8.375 L 3.78125 -6.28125 C 3.78125 -4.726562 4.164062 -3.570312 4.9375 -2.8125 C 5.71875 -2.050781 6.722656 -1.671875 7.953125 -1.671875 Z M 7.953125 -1.671875 "/></g></g></g><g fill="#ffffff" fill-opacity="1"><g transform="translate(1224.876433, 452.339831)"><g><path d="M 2.40625 0 L 2.40625 -14.65625 L 4.6875 -14.65625 L 4.6875 -12.265625 L 4.796875 -12.265625 C 4.960938 -12.640625 5.15625 -12.992188 5.375 -13.328125 C 5.59375 -13.660156 5.859375 -13.945312 6.171875 -14.1875 C 6.484375 -14.4375 6.847656 -14.628906 7.265625 -14.765625 C 7.679688 -14.910156 8.175781 -14.984375 8.75 -14.984375 C 9.707031 -14.984375 10.59375 -14.75 11.40625 -14.28125 C 12.226562 -13.820312 12.835938 -13.066406 13.234375 -12.015625 L 13.28125 -12.015625 C 13.550781 -12.804688 14.050781 -13.5 14.78125 -14.09375 C 15.507812 -14.6875 16.5 -14.984375 17.75 -14.984375 C 19.238281 -14.984375 20.40625 -14.492188 21.25 -13.515625 C 22.09375 -12.546875 22.515625 -11.171875 22.515625 -9.390625 L 22.515625 0 L 20.25 0 L 20.25 -9 C 20.25 -10.300781 19.988281 -11.285156 19.46875 -11.953125 C 18.957031 -12.617188 18.144531 -12.953125 17.03125 -12.953125 C 16.582031 -12.953125 16.148438 -12.894531 15.734375 -12.78125 C 15.328125 -12.664062 14.960938 -12.492188 14.640625 -12.265625 C 14.328125 -12.035156 14.070312 -11.742188 13.875 -11.390625 C 13.6875 -11.046875 13.59375 -10.632812 13.59375 -10.15625 L 13.59375 0 L 11.328125 0 L 11.328125 -9 C 11.328125 -10.300781 11.070312 -11.285156 10.5625 -11.953125 C 10.050781 -12.617188 9.253906 -12.953125 8.171875 -12.953125 C 7.722656 -12.953125 7.289062 -12.894531 6.875 -12.78125 C 6.457031 -12.664062 6.085938 -12.492188 5.765625 -12.265625 C 5.441406 -12.035156 5.179688 -11.742188 4.984375 -11.390625 C 4.785156 -11.046875 4.6875 -10.632812 4.6875 -10.15625 L 4.6875 0 Z M 2.40625 0 "/></g></g></g><g fill="#ffffff" fill-opacity="1"><g transform="translate(1249.656737, 452.339831)"><g><path d="M 2.40625 -14.65625 L 4.6875 -14.65625 L 4.6875 -12.265625 L 4.796875 -12.265625 C 5.171875 -13.191406 5.722656 -13.875 6.453125 -14.3125 C 7.179688 -14.757812 8.054688 -14.984375 9.078125 -14.984375 C 9.992188 -14.984375 10.816406 -14.800781 11.546875 -14.4375 C 12.285156 -14.082031 12.914062 -13.570312 13.4375 -12.90625 C 13.957031 -12.25 14.351562 -11.445312 14.625 -10.5 C 14.90625 -9.550781 15.046875 -8.492188 15.046875 -7.328125 C 15.046875 -6.148438 14.90625 -5.085938 14.625 -4.140625 C 14.351562 -3.191406 13.957031 -2.382812 13.4375 -1.71875 C 12.914062 -1.0625 12.285156 -0.550781 11.546875 -0.1875 C 10.816406 0.164062 9.992188 0.34375 9.078125 0.34375 C 7.097656 0.34375 5.671875 -0.566406 4.796875 -2.390625 L 4.6875 -2.390625 L 4.6875 5.671875 L 2.40625 5.671875 Z M 8.453125 -1.703125 C 9.742188 -1.703125 10.757812 -2.101562 11.5 -2.90625 C 12.238281 -3.707031 12.609375 -4.765625 12.609375 -6.078125 L 12.609375 -8.578125 C 12.609375 -9.878906 12.238281 -10.929688 11.5 -11.734375 C 10.757812 -12.546875 9.742188 -12.953125 8.453125 -12.953125 C 7.941406 -12.953125 7.453125 -12.878906 6.984375 -12.734375 C 6.523438 -12.585938 6.125 -12.390625 5.78125 -12.140625 C 5.445312 -11.898438 5.179688 -11.601562 4.984375 -11.25 C 4.785156 -10.90625 4.6875 -10.535156 4.6875 -10.140625 L 4.6875 -4.6875 C 4.6875 -4.207031 4.785156 -3.785156 4.984375 -3.421875 C 5.179688 -3.054688 5.445312 -2.742188 5.78125 -2.484375 C 6.125 -2.222656 6.523438 -2.023438 6.984375 -1.890625 C 7.453125 -1.765625 7.941406 -1.703125 8.453125 -1.703125 Z M 8.453125 -1.703125 "/></g></g></g><g fill="#ffffff" fill-opacity="1"><g transform="translate(1266.120178, 452.339831)"><g><path d="M 13.0625 0 C 12.207031 0 11.59375 -0.222656 11.21875 -0.671875 C 10.851562 -1.128906 10.625 -1.703125 10.53125 -2.390625 L 10.390625 -2.390625 C 10.066406 -1.472656 9.535156 -0.785156 8.796875 -0.328125 C 8.054688 0.117188 7.175781 0.34375 6.15625 0.34375 C 4.601562 0.34375 3.394531 -0.0507812 2.53125 -0.84375 C 1.675781 -1.644531 1.25 -2.726562 1.25 -4.09375 C 1.25 -5.46875 1.753906 -6.523438 2.765625 -7.265625 C 3.773438 -8.003906 5.351562 -8.375 7.5 -8.375 L 10.390625 -8.375 L 10.390625 -9.828125 C 10.390625 -10.867188 10.101562 -11.660156 9.53125 -12.203125 C 8.96875 -12.753906 8.097656 -13.03125 6.921875 -13.03125 C 6.035156 -13.03125 5.289062 -12.832031 4.6875 -12.4375 C 4.09375 -12.039062 3.597656 -11.507812 3.203125 -10.84375 L 1.84375 -12.125 C 2.238281 -12.914062 2.867188 -13.585938 3.734375 -14.140625 C 4.609375 -14.703125 5.710938 -14.984375 7.046875 -14.984375 C 8.816406 -14.984375 10.191406 -14.546875 11.171875 -13.671875 C 12.160156 -12.804688 12.65625 -11.597656 12.65625 -10.046875 L 12.65625 -1.984375 L 14.34375 -1.984375 L 14.34375 0 Z M 6.53125 -1.59375 C 7.09375 -1.59375 7.609375 -1.65625 8.078125 -1.78125 C 8.554688 -1.914062 8.96875 -2.101562 9.3125 -2.34375 C 9.65625 -2.59375 9.921875 -2.878906 10.109375 -3.203125 C 10.296875 -3.523438 10.390625 -3.878906 10.390625 -4.265625 L 10.390625 -6.671875 L 7.375 -6.671875 C 6.070312 -6.671875 5.125 -6.476562 4.53125 -6.09375 C 3.9375 -5.71875 3.640625 -5.171875 3.640625 -4.453125 L 3.640625 -3.859375 C 3.640625 -3.140625 3.898438 -2.582031 4.421875 -2.1875 C 4.941406 -1.789062 5.644531 -1.59375 6.53125 -1.59375 Z M 6.53125 -1.59375 "/></g></g></g><g fill="#ffffff" fill-opacity="1"><g transform="translate(1281.277884, 452.339831)"><g><path d="M 2.40625 0 L 2.40625 -14.65625 L 4.6875 -14.65625 L 4.6875 -12.265625 L 4.796875 -12.265625 C 5.160156 -13.097656 5.664062 -13.757812 6.3125 -14.25 C 6.96875 -14.738281 7.84375 -14.984375 8.9375 -14.984375 C 10.457031 -14.984375 11.65625 -14.492188 12.53125 -13.515625 C 13.414062 -12.546875 13.859375 -11.171875 13.859375 -9.390625 L 13.859375 0 L 11.578125 0 L 11.578125 -9 C 11.578125 -11.632812 10.472656 -12.953125 8.265625 -12.953125 C 7.804688 -12.953125 7.363281 -12.894531 6.9375 -12.78125 C 6.507812 -12.664062 6.125 -12.492188 5.78125 -12.265625 C 5.445312 -12.035156 5.179688 -11.742188 4.984375 -11.390625 C 4.785156 -11.046875 4.6875 -10.632812 4.6875 -10.15625 L 4.6875 0 Z M 2.40625 0 "/></g></g></g><g fill="#ffffff" fill-opacity="1"><g transform="translate(1297.40069, 452.339831)"><g><path d="M 11.4375 -14.65625 L 13.6875 -14.65625 L 7.125 3.40625 C 6.957031 3.84375 6.785156 4.207031 6.609375 4.5 C 6.441406 4.789062 6.234375 5.019531 5.984375 5.1875 C 5.742188 5.363281 5.4375 5.488281 5.0625 5.5625 C 4.695312 5.632812 4.25 5.671875 3.71875 5.671875 L 2.5625 5.671875 L 2.5625 3.6875 L 4.859375 3.6875 L 5.96875 0.5625 L 0.484375 -14.65625 L 2.75 -14.65625 L 6.28125 -4.6875 L 6.953125 -2.296875 L 7.09375 -2.296875 L 7.890625 -4.6875 Z M 11.4375 -14.65625 "/></g></g></g></svg>